<svg width="232" height="220" viewBox="0 0 232 220" fill="none" xmlns="http://www.w3.org/2000/svg">
<path d="M120.049 204.932C176.544 204.932 222.342 159.134 222.342 102.64C222.342 46.1451 176.544 0.347137 120.049 0.347137C63.5547 0.347137 17.7568 46.1451 17.7568 102.64C17.7568 159.134 63.5547 204.932 120.049 204.932Z" fill="url(#paint0_linear_524_3073)"/>
<path fill-rule="evenodd" clip-rule="evenodd" d="M120.211 11.7548C119.7 11.5439 119.152 11.4358 118.6 11.4368L118.595 11.4368C117.479 11.4378 116.409 11.8816 115.619 12.6709C114.831 13.4597 114.387 14.5291 114.385 15.6447V20.9415H103.917L103.917 15.6376C103.92 11.7481 105.467 8.01896 108.217 5.26871C110.967 2.51897 114.695 0.972478 118.584 0.968553L118.586 0.968551C120.514 0.965812 122.423 1.34288 124.205 2.07822C125.988 2.81414 127.608 3.89445 128.974 5.25735C130.339 6.62025 131.422 8.23898 132.161 10.0209C132.9 11.8028 133.28 13.713 133.28 15.6421V20.7456H122.812V15.6421C122.812 15.0892 122.703 14.5418 122.491 14.0311C122.28 13.5204 121.969 13.0565 121.578 12.6659C121.187 12.2753 120.722 11.9657 120.211 11.7548ZM118.586 0.968551L118.584 0.968553L118.586 0.968551Z" fill="url(#paint1_linear_524_3073)"/>
<path d="M119.236 192.002C140.932 192.002 158.52 174.414 158.52 152.717C158.52 131.021 140.932 113.433 119.236 113.433C97.5395 113.433 79.9512 131.021 79.9512 152.717C79.9512 174.414 97.5395 192.002 119.236 192.002Z" fill="url(#paint2_linear_524_3073)"/>
<path d="M181.22 109.407V79.2682C181.22 62.8288 174.69 47.0628 163.065 35.4383C151.441 23.8139 135.675 17.2834 119.235 17.2834C102.796 17.2834 87.03 23.8139 75.4055 35.4383C63.7811 47.0628 57.2506 62.8288 57.2506 79.2682V109.407C57.2513 116.332 55.2925 123.115 51.6007 128.972C47.9088 134.83 42.6345 139.524 36.3876 142.511C34.9518 143.194 33.7398 144.272 32.8927 145.618C32.0455 146.964 31.5981 148.522 31.6026 150.113V150.276C31.6015 150.85 31.7137 151.419 31.9328 151.95C32.1518 152.481 32.4734 152.964 32.8792 153.37C33.285 153.777 33.7669 154.099 34.2975 154.319C34.828 154.539 35.3968 154.653 35.9712 154.653H202.492C203.066 154.653 203.635 154.539 204.165 154.319C204.696 154.099 205.178 153.777 205.583 153.37C205.989 152.964 206.311 152.481 206.53 151.95C206.749 151.419 206.861 150.85 206.86 150.276V150.113C206.861 148.527 206.412 146.974 205.567 145.633C204.722 144.292 203.514 143.218 202.083 142.535C195.833 139.547 190.556 134.849 186.864 128.987C183.172 123.124 181.215 116.336 181.22 109.407Z" fill="url(#paint3_linear_524_3073)"/>
<path d="M230.533 70.7504C230.579 70.6668 230.607 70.5743 230.615 70.4791C230.624 70.3838 230.611 70.2879 230.58 70.1977C230.548 70.1074 230.498 70.0249 230.432 69.9555C230.366 69.8861 230.286 69.8315 230.198 69.7951C227.618 68.7662 218.489 65.7123 213.499 71.8691C210.161 75.9156 205.443 78.583 200.255 79.3569C200.124 79.3744 200.002 79.431 199.904 79.5192C199.807 79.6074 199.738 79.7231 199.707 79.8511C199.676 79.9791 199.684 80.1135 199.731 80.2366C199.778 80.3597 199.861 80.4658 199.969 80.5409C204.379 83.6684 218.946 91.638 230.533 70.7504Z" fill="url(#paint4_linear_524_3073)"/>
<path d="M37.1601 113.929C37.1969 113.862 37.2192 113.788 37.2254 113.711C37.2317 113.635 37.2218 113.558 37.1964 113.486C37.171 113.413 37.1306 113.347 37.0779 113.291C37.0253 113.236 36.9615 113.191 36.8907 113.162C34.8248 112.345 27.4839 109.896 23.4746 114.795C20.7993 118.041 17.0188 120.185 12.8594 120.813C12.755 120.827 12.6572 120.872 12.5789 120.943C12.5007 121.013 12.4456 121.106 12.4208 121.208C12.3961 121.311 12.4029 121.418 12.4404 121.517C12.4779 121.615 12.5442 121.7 12.6308 121.76C16.1501 124.308 27.8514 130.71 37.1601 113.929Z" fill="url(#paint5_linear_524_3073)"/>
<path d="M210.447 104.667C210.416 104.611 210.397 104.549 210.392 104.485C210.387 104.421 210.395 104.357 210.417 104.297C210.439 104.236 210.473 104.181 210.518 104.135C210.562 104.089 210.616 104.053 210.676 104.03C212.407 103.336 218.54 101.286 221.887 105.418C224.131 108.136 227.302 109.928 230.788 110.448C230.88 110.457 230.968 110.494 231.038 110.555C231.108 110.616 231.157 110.698 231.177 110.789C231.198 110.879 231.19 110.974 231.154 111.059C231.118 111.145 231.055 111.217 230.976 111.265C228.02 113.38 218.229 118.728 210.447 104.667Z" fill="url(#paint6_linear_524_3073)"/>
<path d="M0.903667 78.167C0.853269 78.0737 0.822988 77.9708 0.814778 77.865C0.806567 77.7593 0.820609 77.6529 0.855997 77.5529C0.891385 77.4529 0.947334 77.3614 1.02024 77.2844C1.09315 77.2073 1.18139 77.1464 1.27928 77.1055C4.13723 75.9705 14.2544 72.5899 19.7825 79.4C23.4855 83.89 28.7229 86.8463 34.4805 87.6962C34.6245 87.7175 34.7587 87.7814 34.866 87.8798C34.9732 87.9783 35.0484 88.1066 35.0818 88.2483C35.1152 88.3899 35.1054 88.5383 35.0535 88.6743C35.0016 88.8103 34.9101 88.9275 34.7908 89.0109C29.8833 92.4731 13.7399 101.308 0.903667 78.167Z" fill="url(#paint7_linear_524_3073)"/>
<path d="M35.342 51.9796C35.0272 50.7449 36.167 49.6324 37.3937 49.9772L44.181 51.8845C45.4077 52.2292 45.8012 53.7726 44.8893 54.6626L39.8439 59.5868C38.932 60.4768 37.3986 60.0459 37.0838 58.8112L35.342 51.9796Z" fill="#CAF2FF"/>
<path d="M204.77 16.3722C205.259 14.3452 208.142 14.3452 208.631 16.3722L209.86 21.4631C210.035 22.1875 210.601 22.753 211.325 22.9279L216.416 24.1568C218.443 24.6461 218.443 27.5292 216.416 28.0185L211.325 29.2474C210.601 29.4223 210.035 29.9878 209.86 30.7122L208.631 35.8031C208.142 37.8301 205.259 37.8301 204.77 35.8031L203.541 30.7122C203.366 29.9878 202.8 29.4223 202.076 29.2474L196.985 28.0185C194.958 27.5292 194.958 24.6461 196.985 24.1568L202.076 22.9279C202.8 22.753 203.366 22.1875 203.541 21.4631L204.77 16.3722Z" fill="#CAF2FF"/>
<path d="M78.1319 192.06C78.6212 190.033 81.5043 190.033 81.9936 192.06L83.2225 197.151C83.3974 197.876 83.9629 198.441 84.6873 198.616L89.7782 199.845C91.8052 200.334 91.8052 203.217 89.7782 203.707L84.6873 204.936C83.9629 205.11 83.3974 205.676 83.2225 206.4L81.9936 211.491C81.5043 213.518 78.6212 213.518 78.1319 211.491L76.903 206.4C76.7282 205.676 76.1626 205.11 75.4383 204.936L70.3473 203.707C68.3204 203.217 68.3204 200.334 70.3473 199.845L75.4383 198.616C76.1626 198.441 76.7282 197.876 76.903 197.151L78.1319 192.06Z" fill="#CAF2FF"/>
<path d="M54.4961 182.094C54.4961 184.262 52.7387 186.019 50.5709 186.019C48.4031 186.019 46.6457 184.262 46.6457 182.094C46.6457 179.926 48.4031 178.169 50.5709 178.169C52.7387 178.169 54.4961 179.926 54.4961 182.094Z" stroke="#CAF2FF" stroke-width="2.48287"/>
<circle cx="56.8131" cy="22.4583" r="3.92519" stroke="#9CE7FF" stroke-width="2.48287"/>
<circle cx="218.232" cy="174.067" r="3.92519" stroke="#9CE7FF" stroke-width="2.48287"/>
<defs>
<linearGradient id="paint0_linear_524_3073" x1="119.261" y1="-32.9618" x2="121.356" y2="326.274" gradientUnits="userSpaceOnUse">
<stop stop-color="#DCF6FF" stop-opacity="0.1"/>
<stop offset="1" stop-color="#E2F8FF"/>
</linearGradient>
<linearGradient id="paint1_linear_524_3073" x1="140.424" y1="21.9702" x2="125.754" y2="-4.82848" gradientUnits="userSpaceOnUse">
<stop stop-color="#97E5FF"/>
<stop offset="1" stop-color="#42B9E0"/>
</linearGradient>
<linearGradient id="paint2_linear_524_3073" x1="185.419" y1="218.397" x2="64.6069" y2="87.8655" gradientUnits="userSpaceOnUse">
<stop stop-color="#A2E6FC"/>
<stop offset="0.70369" stop-color="#42B9E0"/>
</linearGradient>
<linearGradient id="paint3_linear_524_3073" x1="143.503" y1="143.484" x2="105.646" y2="32.1834" gradientUnits="userSpaceOnUse">
<stop stop-color="#42B9E0"/>
<stop offset="1" stop-color="#DFF7FF"/>
</linearGradient>
<linearGradient id="paint4_linear_524_3073" x1="238.143" y1="85.5163" x2="227.67" y2="61.1817" gradientUnits="userSpaceOnUse">
<stop stop-color="#86E1FF"/>
<stop offset="1" stop-color="#D9F6FF"/>
</linearGradient>
<linearGradient id="paint5_linear_524_3073" x1="43.266" y1="125.787" x2="34.8555" y2="106.252" gradientUnits="userSpaceOnUse">
<stop stop-color="#95E5FF"/>
<stop offset="1" stop-color="#DCF6FF"/>
</linearGradient>
<linearGradient id="paint6_linear_524_3073" x1="236.249" y1="114.615" x2="229.192" y2="98.2376" gradientUnits="userSpaceOnUse">
<stop stop-color="#99E4FD"/>
<stop offset="1" stop-color="#DCF6FF"/>
</linearGradient>
<linearGradient id="paint7_linear_524_3073" x1="43.4433" y1="94.5232" x2="31.8499" y2="67.5615" gradientUnits="userSpaceOnUse">
<stop stop-color="#9BE6FF"/>
<stop offset="1" stop-color="#DEF7FF"/>
</linearGradient>
</defs>
</svg>
