<svg width="123" height="80" viewBox="0 0 123 80" fill="none" xmlns="http://www.w3.org/2000/svg">
<g clip-path="url(#clip0_847_1831)">
<path fill-rule="evenodd" clip-rule="evenodd" d="M54.3444 1.92397L51.7083 26.9059L87.7402 10.5606C78.6416 2.83913 66.3096 -0.481 54.3444 1.92397Z" fill="#FF4841"/>
<path fill-rule="evenodd" clip-rule="evenodd" d="M32.9905 66.6921L55.9866 56.2763L23.5165 33.0566C23.0601 35.4531 22.8254 37.9006 22.8254 40.3652V40.412C22.8254 45.8349 23.9558 51.3386 26.3446 56.5955C28.0765 60.3796 30.3415 63.7593 32.9905 66.6921Z" fill="#E8AA0F"/>
<path d="M87 70.3102H118.807C121.123 70.3102 123 68.4373 123 66.126V13.9488C123 11.6375 121.123 9.76459 118.807 9.76459H117.711C115.394 9.76459 113.517 11.6375 113.517 13.9488V57.1063C113.517 59.4176 111.641 61.2905 109.324 61.2905H87.4863C86.1469 61.2905 84.8885 61.929 84.0994 63.0102C83.9629 63.1932 83.8179 63.389 83.66 63.5976C81.5656 66.3559 83.5406 70.3102 87 70.3102Z" fill="#6E758A"/>
<path d="M109.324 10.518H99.0442C96.728 10.518 94.8511 8.64512 94.8511 6.3338V4.18422C94.8511 1.8729 96.728 0 99.0442 0H109.324C111.641 0 113.518 1.8729 113.518 4.18422V6.32954C113.518 8.64086 111.641 10.518 109.324 10.518Z" fill="#6E758A"/>
<path fill-rule="evenodd" clip-rule="evenodd" d="M75.0115 77.572C76.2144 77.1548 77.4216 76.6866 78.5904 76.1588C89.3014 71.3063 96.7833 62.2355 99.9826 51.8069L79.2345 37.5771L75.0115 77.572Z" fill="#42B9E0"/>
<path fill-rule="evenodd" clip-rule="evenodd" d="M70.0675 78.9043L72.7165 53.9224L36.6846 70.2634C45.7704 77.9849 58.1024 81.305 70.0675 78.9043Z" fill="#5076ED"/>
<path fill-rule="evenodd" clip-rule="evenodd" d="M101.168 46.8565L68.7324 24.6116L91.7584 14.1659C94.3263 17.0519 96.4933 20.355 98.1825 24.0369C101.569 31.4391 102.435 39.3734 101.168 46.8565Z" fill="#1D68F5"/>
<path fill-rule="evenodd" clip-rule="evenodd" d="M49.1743 3.18817C48.0994 3.57552 47.0244 3.98841 45.9495 4.47366C35.4901 9.21549 28.1063 17.9798 24.7876 28.1062L45.4205 42.8638L49.1743 3.18817Z" fill="#E33F3B"/>
<path fill-rule="evenodd" clip-rule="evenodd" d="M47.6901 18.5672C26.0504 33.0609 36.4373 66.6581 62.2743 66.6581C88.0943 66.6581 98.511 33.0822 76.8628 18.5672C68.1097 12.7016 56.4346 12.7016 47.6901 18.5672Z" fill="#FEFEFE"/>
<path fill-rule="evenodd" clip-rule="evenodd" d="M51.2476 23.8965C34.8931 34.8529 42.7462 60.2519 62.2743 60.2519C81.7896 60.2519 89.664 34.8699 73.2967 23.8965C66.685 19.4611 57.8593 19.4654 51.2476 23.8965Z" fill="#D3D3D3"/>
<path fill-rule="evenodd" clip-rule="evenodd" d="M53.4742 27.2379C40.4256 35.9766 46.6876 56.2422 62.2743 56.2422C77.8482 56.2422 84.1272 35.9937 71.07 27.2379C65.7892 23.6964 58.7508 23.7006 53.4742 27.2379Z" fill="#6E758A"/>
<path fill-rule="evenodd" clip-rule="evenodd" d="M54.5107 28.7873C42.9977 36.5002 48.5217 54.3821 62.2699 54.3821C76.0095 54.3821 81.5506 36.5172 70.0291 28.7873C65.3795 25.6629 59.1687 25.6629 54.5107 28.7873Z" fill="#3B4B5C"/>
<path fill-rule="evenodd" clip-rule="evenodd" d="M57.9658 33.9633C51.5801 38.2411 54.6471 48.159 62.2741 48.159C69.8968 48.159 72.9723 38.2497 66.5781 33.9633C63.9932 32.2308 60.5465 32.2308 57.9658 33.9633Z" fill="#333741"/>
<path fill-rule="evenodd" clip-rule="evenodd" d="M57.3731 37.8027C54.353 35.7766 55.8033 31.0943 59.4121 31.0943C63.0165 31.0943 64.4669 35.7766 61.4468 37.8027C60.2225 38.62 58.5931 38.62 57.3731 37.8027Z" fill="white"/>
<path fill-rule="evenodd" clip-rule="evenodd" d="M65.7508 48.0653C64.2664 47.0693 64.9787 44.7665 66.749 44.7665C68.5235 44.7665 69.2358 47.0735 67.7471 48.0653C67.1542 48.4697 66.348 48.4697 65.7508 48.0653Z" fill="#FEFEFE"/>
<path fill-rule="evenodd" clip-rule="evenodd" d="M24.3313 63.8317C24.2971 63.7806 24.2673 63.7296 24.2332 63.6827C23.4568 62.4824 22.1302 61.746 20.6969 61.746H13.3771C11.0608 61.746 9.18394 59.8731 9.18394 57.5618V23.2665C9.18394 20.9552 11.0608 19.0823 13.3771 19.0823H27.1039C28.3239 19.0823 29.4842 18.5502 30.2818 17.6265C30.333 17.5669 30.3842 17.5073 30.4354 17.4477C32.79 14.7363 30.8662 10.518 27.2703 10.518H4.19313C1.87689 10.518 0 12.3909 0 14.7022V66.126C0 68.4373 1.87689 70.3102 4.19313 70.3102H20.8206C24.1564 70.3102 26.1484 66.6198 24.3313 63.8317Z" fill="#6E758A"/>
</g>
<defs>
<clipPath id="clip0_847_1831">
<rect width="123" height="79.6705" fill="white"/>
</clipPath>
</defs>
</svg>
