<svg width="94" height="109" viewBox="0 0 94 109" fill="none" xmlns="http://www.w3.org/2000/svg">
<path d="M86.438 22.5824C85.8651 21.2458 84.9908 20.1101 84.0863 18.9845C83.0009 17.3263 81.6743 15.859 80.2673 14.472C79.2522 13.2962 78.1568 12.1907 76.8905 11.2761C75.5739 9.88923 73.9458 8.92443 72.3579 7.89933C71.2222 6.90437 69.8956 6.20087 68.5489 5.54762C67.4334 4.81397 66.2173 4.26121 64.9611 3.82906C63.735 3.18586 62.4586 2.70346 61.122 2.36176C60.1069 1.93966 59.0517 1.62811 57.9562 1.47736C57.0014 1.09545 56.0065 0.894453 54.9814 0.844203C53.7251 0.432152 52.4186 0.381901 51.1121 0.251251C50.9011 0.170851 50.6096 0.291451 50.4689 0C50.0468 0 49.6147 0 49.1926 0C48.6298 0 48.0569 0 47.4941 0C47.2831 0 47.072 0 46.8509 0C46.4992 0 46.1374 0 45.7856 0C45.1424 0 44.5093 0 43.8661 0C43.5847 0 43.3033 0 43.0118 0C42.8711 0 42.7304 0 42.5897 0C41.9264 0.381901 41.1827 0.321601 40.4591 0.422101C37.032 0.904503 33.6653 1.62811 30.4493 2.97481C29.4845 3.23611 28.5599 3.60796 27.6855 4.09036C26.3991 4.56272 25.2031 5.18582 24.0574 5.92952C22.2886 6.73352 20.7309 7.86917 19.1731 9.00483C17.7259 9.99978 16.3692 11.1153 15.123 12.3515C13.6356 13.6379 12.2487 15.0047 11.0728 16.5926C10.3894 17.2057 9.84669 17.9393 9.37434 18.7132C8.63064 19.5674 7.95729 20.4619 7.46483 21.4769C6.43973 22.8638 5.51513 24.3211 4.91213 25.9592C3.66592 28.1702 2.78152 30.532 2.08807 32.9641C1.82677 33.7983 1.50516 34.6224 1.31421 35.4666C0.0981594 40.7629 -0.323942 46.0895 0.25896 51.4863C0.580561 54.4712 1.08306 57.4259 2.11822 60.2701C2.73127 62.5615 3.54532 64.7725 4.70107 66.8528C5.40458 68.6216 6.33923 70.2598 7.46483 71.7874C8.28894 73.315 9.32409 74.6918 10.4698 75.9883C11.7562 77.7571 13.3039 79.2646 14.922 80.7219C16.128 82.0183 17.4847 83.1339 18.9721 84.0987C19.9369 84.9529 21.0022 85.6564 22.1479 86.2393C23.1328 87.0031 24.2283 87.576 25.3639 88.0885C26.2182 88.5106 27.0624 88.9227 27.9167 89.3448C28.8815 89.787 29.8362 90.2593 30.8915 90.4804C31.8663 90.993 32.9316 91.2543 33.9768 91.5357C34.4391 91.6664 34.7909 91.8573 35.0421 92.3096C36.3788 94.7618 37.7255 97.214 39.1124 99.636C39.5747 100.44 39.2129 100.47 38.5395 100.47C35.9265 100.46 24.9318 100.48 22.3188 100.5C21.3942 100.5 20.4696 100.5 19.555 100.5C18.4194 100.52 17.2636 100.269 16.1481 100.691C14.2788 101.224 12.9924 102.872 12.9924 104.721C12.9924 106.581 14.2788 108.229 16.1481 108.751C17.2636 109.174 18.4194 108.912 19.555 108.942C20.4796 108.942 21.4042 108.942 22.3188 108.942C26.4292 108.942 38.9114 108.942 43.0319 108.942C43.7455 108.942 44.449 108.942 45.1625 108.942C45.8057 108.942 46.4389 108.942 47.0821 108.942C47.6449 108.942 48.2177 108.942 48.7805 108.942C49.5644 108.942 50.3383 108.942 51.1222 108.942C52.1875 108.942 53.2528 108.942 54.3181 108.942C55.4537 108.942 56.5894 108.942 57.7251 108.942C58.8607 108.942 69.8253 108.942 70.9609 108.942C72.1669 108.942 73.373 108.942 74.579 108.942C75.8654 108.912 77.1719 109.174 78.4482 108.782C80.3477 108.4 81.7748 106.651 81.7748 104.721C81.7748 102.782 80.3477 101.043 78.4482 100.661C77.1719 100.269 75.8654 100.53 74.579 100.5C73.373 100.5 72.1669 100.5 70.9609 100.5C69.8253 100.5 58.8607 100.5 57.7251 100.5C56.5894 100.5 55.4537 100.5 54.3181 100.5C54.0869 100.45 53.8156 100.42 53.9864 100.058C54.1673 99.6963 54.3382 99.3345 54.5191 98.9627C55.6648 97.0331 56.8004 95.1035 57.7552 93.0633C58.3381 92.0583 58.9813 91.0935 59.4838 90.0583C60.5692 87.8473 59.8657 85.6263 57.7854 84.4504C56.5894 83.7067 55.3633 83.6062 54.0869 84.2394C52.3684 84.8323 51.7754 86.3599 51.1021 87.8272C50.2076 89.1337 49.484 90.5407 48.7906 91.9578C48.2579 92.8824 47.7353 93.8271 47.1725 94.7417C46.9916 95.0331 47.0017 95.5356 46.459 95.5055C46.2379 94.7919 45.8459 94.1789 45.4037 93.596C44.7505 92.1086 43.9465 90.7016 43.0621 89.3549C42.5194 88.0483 41.7957 86.8423 41.052 85.6564C40.5294 84.8323 39.7556 84.2595 38.7807 84.0283C36.3185 83.4454 33.9266 82.6213 31.5548 81.7369C30.5096 81.2244 29.4644 80.7219 28.4192 80.2093C27.6152 79.4254 26.4393 79.2445 25.6051 78.5008C24.6604 77.8074 23.7057 77.1139 22.761 76.4205C21.5851 75.3351 20.4093 74.2496 19.2334 73.1743C17.9571 71.5361 16.4395 70.0889 15.3139 68.3402C13.6657 65.8478 12.2687 63.2147 11.0929 60.461C11.0225 60.2299 10.9622 59.9886 10.8718 59.7575C9.35424 55.8882 8.61054 51.8883 8.53014 47.7276C8.44974 43.7377 8.97234 39.8383 10.0075 35.9892C10.52 34.5018 11.0326 33.0043 11.5351 31.5169C12.7713 29.0044 14.1883 26.5924 15.7461 24.2708C15.9169 24.0095 16.0677 23.7281 16.2687 23.497C17.3943 22.2005 18.5299 20.9242 19.6656 19.6378C21.2635 18.271 22.8615 16.9042 24.4594 15.5474C25.6956 14.7836 26.9317 14.0198 28.1679 13.256C29.0121 12.8339 29.8463 12.4017 30.6905 11.9796C34.5798 10.3214 38.6099 9.16563 42.8209 8.70333C43.6651 8.64303 44.5193 8.58273 45.3635 8.51238C45.9263 8.51238 46.4992 8.50233 47.062 8.50233C47.6248 8.51238 48.1976 8.52243 48.7604 8.52243C49.5343 8.68323 50.3081 8.78373 51.1021 8.73348C52.2277 8.93448 53.3633 9.12543 54.4889 9.32643C55.4839 9.55758 56.4789 9.79878 57.4839 10.0299C58.6899 10.452 59.8959 10.8842 61.1019 11.3063C62.3079 11.8791 63.5139 12.452 64.7199 13.0248C65.8555 13.7183 67.0012 14.4218 68.1369 15.1152C69.4132 16.1102 70.6896 17.1052 71.9659 18.1001C73.584 19.688 75.1418 21.3262 76.6292 23.0447C77.6844 24.6125 78.7497 26.1703 79.805 27.7381C81.2421 30.532 82.4883 33.4063 83.433 36.4113C83.4732 36.6223 83.4933 36.8334 83.5436 37.0344C85.041 42.9337 85.1616 48.8532 83.8752 54.8129C83.0411 58.6922 81.5235 62.3002 79.6542 65.7775C78.5889 67.3453 77.5136 68.9131 76.4483 70.4909C75.0915 72.0286 73.6845 73.526 72.2373 74.9732C70.7901 76.4104 70.6594 78.6616 71.8152 80.34C72.9308 81.958 74.9709 82.5309 76.8804 81.747C78.3578 81.1741 79.2522 79.9179 80.2874 78.8224C81.2421 78.0285 82.016 77.0737 82.7898 76.1089C84.2069 74.32 85.644 72.5411 86.6289 70.4608C95.7041 54.4611 95.6137 38.5017 86.438 22.5824Z" fill="white"/>
<path d="M45.3635 70.903C46.4992 71.2045 47.6348 70.9231 48.7705 70.8628C49.6448 70.8728 50.5091 70.7623 51.3433 70.4708C52.4488 70.3301 53.5241 70.1191 54.5291 69.6166C55.7552 69.3251 56.8909 68.8126 57.9462 68.1392C59.1723 67.5764 60.328 66.9031 61.323 65.9885C62.7199 65.0639 63.8857 63.878 64.951 62.5916C65.9661 61.5866 66.7801 60.4208 67.4635 59.1746C67.6444 58.8329 67.8153 58.4912 68.0163 58.1495C70.6393 53.5868 71.3529 48.6723 70.7599 43.5066C70.368 40.1097 69.1921 37.0042 67.4334 34.0897C66.7399 32.8435 65.9158 31.6978 64.9108 30.6828C63.8455 29.3159 62.5792 28.1602 61.132 27.2054C60.127 26.2909 58.9713 25.6175 57.7251 25.0748C56.6698 24.4115 55.5241 23.9392 54.3181 23.6377C53.293 23.2055 52.2377 22.8839 51.1121 22.8035C50.3584 22.5322 49.5544 22.5422 48.7705 22.4518C47.7052 22.301 46.6499 22.3412 45.5846 22.3915C44.5495 22.3211 43.5545 22.4719 42.5696 22.7633H42.5596C38.0069 23.3663 34.1175 25.3663 30.7005 28.3612C29.6453 29.1953 28.6704 30.12 27.9167 31.2556C26.7509 32.5119 25.7961 33.9088 25.1328 35.4967C25.0021 35.6977 24.8413 35.8987 24.7408 36.1098C22.7409 40.1901 22.0374 44.5216 22.4394 49.014C22.7308 52.3104 23.6353 55.4661 25.374 58.3304C26.0272 59.7374 26.9016 60.9836 27.9368 62.1293C28.7207 63.1946 29.6553 64.1192 30.6905 64.9333C31.2432 65.6468 32.007 66.0991 32.7306 66.6016C35.8461 68.7523 39.233 70.2397 43.042 70.6718C43.7857 70.9432 44.5796 70.913 45.3635 70.903ZM42.047 61.5163C38.9114 60.5414 36.3486 58.7424 34.3386 56.1495C33.3537 54.8832 32.6804 53.436 31.9769 52.0089C31.8462 51.7376 31.7759 51.4059 31.5246 51.2552C31.7055 50.9436 31.6151 50.612 31.5447 50.3004C31.0623 48.0291 31.0724 45.7578 31.4844 43.4764C31.5548 43.1046 31.6352 42.7126 31.3337 42.391C31.4643 42.3408 31.5548 42.19 31.6352 42.0493C31.8462 41.6775 32.0271 41.2956 32.198 40.9036C34.0974 36.4515 37.3436 33.4465 41.9164 31.8586C42.2983 31.728 42.7003 31.6174 42.9817 31.326C43.9063 31.5973 44.7404 31.336 45.5545 30.8737C45.5746 30.9039 45.5947 30.9441 45.6248 30.9742C46.6901 31.3159 47.7454 31.3963 48.7805 30.924C49.3534 31.6476 50.087 31.6074 50.8609 31.336C50.881 31.326 50.891 31.3059 50.9111 31.2958C51.5945 32.3008 52.69 32.4214 53.7854 32.5521C53.896 32.8134 54.1271 32.9842 54.3683 33.1551C55.2326 33.7581 56.1572 34.3008 56.9412 35.0143C57.0517 35.1148 57.1824 35.2053 57.3331 35.1852C57.4135 35.4666 57.5844 35.6977 57.8055 35.9088C58.9009 36.9439 59.725 38.17 60.4587 39.4765C60.5692 39.6675 60.6597 39.9087 60.8506 40.0192C60.9009 40.5016 61.0717 40.9539 61.2325 41.4061C62.4888 45.0844 62.4988 48.7527 61.1019 52.4009C60.9913 52.6823 60.8908 52.9637 60.8607 53.2652C60.73 53.3355 60.6496 53.4762 60.5793 53.6169C59.8557 55.0641 58.8607 56.3304 57.8457 57.5766C57.6949 57.7575 57.5844 57.9686 57.514 58.1897C56.2578 58.7022 55.2929 59.667 54.2477 60.4911C54.2075 60.5213 54.1673 60.5715 54.1472 60.6218C53.2126 60.5816 52.4789 61.1947 51.6247 61.4359C51.3433 61.5163 51.1121 61.6771 50.9815 61.9183C50.0468 61.667 49.2026 61.9082 48.3886 62.3504C48.3584 62.3303 48.3283 62.3102 48.2881 62.2901C47.3434 62.1193 46.4188 62.1997 45.4942 62.4308C44.7806 61.9183 43.9967 61.8781 43.1827 62.1293C42.9314 61.7173 42.4691 61.6469 42.047 61.5163Z" fill="white"/>
</svg>
