<svg width="272" height="217" viewBox="0 0 272 217" fill="none" xmlns="http://www.w3.org/2000/svg">
<g filter="url(#filter0_f_475_3222)">
<ellipse cx="125.526" cy="174.935" rx="103.575" ry="19.981" fill="#81D9ED"/>
</g>
<path d="M126.664 214.817C185.984 214.817 234.072 166.729 234.072 107.409C234.072 48.0884 185.984 -0.00012207 126.664 -0.00012207C67.3434 -0.00012207 19.2549 48.0884 19.2549 107.409C19.2549 166.729 67.3434 214.817 126.664 214.817Z" fill="url(#paint0_linear_475_3222)"/>
<g filter="url(#filter1_f_475_3222)">
<ellipse cx="169.567" cy="70.5447" rx="34.2531" ry="11.0099" fill="#B4E3EE"/>
</g>
<circle cx="165.098" cy="5.70873" r="4.40247" stroke="#7ED7EB" stroke-width="2.61276"/>
<circle cx="189.956" cy="200.625" r="4.40247" stroke="url(#paint1_linear_475_3222)" stroke-width="2.61276"/>
<path d="M67.223 30.437C67.7379 28.304 70.7718 28.304 71.2867 30.437L72.7612 36.5454C72.9452 37.3076 73.5403 37.9027 74.3026 38.0867L80.4109 39.5613C82.5439 40.0761 82.5439 43.1101 80.4109 43.6249L74.3026 45.0995C73.5403 45.2835 72.9452 45.8786 72.7612 46.6408L71.2867 52.7492C70.7718 54.8822 67.7379 54.8822 67.223 52.7492L65.7485 46.6408C65.5645 45.8786 64.9693 45.2835 64.2071 45.0995L58.0987 43.6249C55.9658 43.1101 55.9658 40.0761 58.0988 39.5613L64.2071 38.0867C64.9693 37.9027 65.5645 37.3076 65.7485 36.5454L67.223 30.437Z" fill="url(#paint2_linear_475_3222)"/>
<path d="M249.798 181.367C250.313 179.234 253.347 179.234 253.862 181.367L255.336 187.476C255.52 188.238 256.116 188.833 256.878 189.017L262.986 190.492C265.119 191.006 265.119 194.04 262.986 194.555L256.878 196.03C256.116 196.214 255.52 196.809 255.336 197.571L253.862 203.679C253.347 205.812 250.313 205.812 249.798 203.679L248.324 197.571C248.14 196.809 247.545 196.214 246.782 196.03L240.674 194.555C238.541 194.04 238.541 191.006 240.674 190.492L246.782 189.017C247.545 188.833 248.14 188.238 248.324 187.476L249.798 181.367Z" fill="url(#paint3_linear_475_3222)"/>
<path d="M21.4192 162.662C22.7432 162.45 23.8002 163.751 23.3218 165.004L20.4349 172.563C19.9565 173.816 18.3015 174.081 17.4559 173.04L12.3528 166.76C11.5072 165.72 12.1051 164.154 13.4291 163.942L21.4192 162.662Z" fill="url(#paint4_linear_475_3222)"/>
<path d="M244.632 54.7437C244.3 53.4444 245.5 52.2737 246.791 52.6365L254.581 54.8256C255.872 55.1884 256.286 56.8125 255.326 57.749L249.535 63.4009C248.576 64.3374 246.962 63.884 246.631 62.5847L244.632 54.7437Z" fill="url(#paint5_linear_475_3222)"/>
<path d="M203.611 112.644H167.99V86.7022C167.99 79.7427 160.826 78.1478 157.244 78.2203H142.455C115.415 78.0028 59.159 77.6984 50.4597 78.2203C41.7604 78.7423 39.0056 84.0924 38.7156 86.7022C38.5706 113.96 38.3676 169.781 38.7156 175C39.0635 180.22 43.6452 183.99 45.8925 185.222H59.8114C60.6089 186.962 62.2907 189.398 62.6387 185.222C63.0737 180.002 65.901 175 74.3828 170.651C82.8646 166.301 89.3891 170.651 94.8262 175C99.1759 178.48 101.423 184.135 102.003 186.527L172.033 185.222C172.758 185.222 174.425 184.526 175.295 181.742C176.382 178.263 180.297 174.565 184.864 170.651C189.431 166.736 196.173 168.911 203.611 171.738C209.562 174 210.266 180.51 209.875 183.482L215.094 185.222H229.448L235.973 178.697V164.561L234.45 153.469L216.617 120.412L209.875 112.644H203.611Z" fill="white"/>
<path d="M111.058 116.232L103.788 110.75L96.5176 116.232V95.188H111.058V116.232Z" fill="#1CAAC9"/>
<path d="M100.299 187.326C100.299 197.545 91.9879 205.855 81.7681 205.855C78.5234 205.855 75.5043 205.005 72.8843 203.582C71.4095 200.91 70.6113 197.892 70.6113 194.647C70.6287 184.429 78.8878 176.171 89.1076 176.171C92.3523 176.171 95.4234 177.021 98.0434 178.479C98.0955 178.479 98.0955 178.479 98.0955 178.531C99.5009 181.15 100.299 184.169 100.299 187.326Z" fill="#1CAAC9"/>
<path d="M210.843 187.326C210.843 197.545 202.532 205.855 192.364 205.855C189.119 205.855 186.1 205.005 183.428 203.582C182.005 200.91 181.155 197.892 181.155 194.647C181.173 184.429 189.484 176.171 199.652 176.171C202.896 176.171 205.915 177.021 208.587 178.444C210.01 181.098 210.843 184.117 210.843 187.326Z" fill="#1CAAC9"/>
<path d="M59.125 91.1111C54.1626 91.1111 50.2412 95.0839 50.2412 99.9936V157.522H168.159V91.1111H59.125ZM131.653 136.443C131.653 138.889 129.64 140.902 127.193 140.902H80.4148C77.9683 140.902 75.9556 138.889 75.9556 136.443V99.664C75.9556 97.1657 77.9683 95.2054 80.4148 95.2054H127.193C129.64 95.2054 131.653 97.1657 131.653 99.664V136.443Z" fill="url(#paint6_linear_475_3222)"/>
<path d="M203.747 100.774C202.515 100.774 201.509 101.78 201.509 103.012C201.509 104.244 202.515 105.25 203.747 105.25C211.347 105.25 218.322 109.379 221.966 116.023C222.556 117.099 223.892 117.498 225.002 116.908C226.078 116.318 226.477 114.965 225.887 113.872C221.445 105.805 212.961 100.774 203.747 100.774Z" fill="#8DE1F3"/>
<path d="M218.097 118.157C215.217 112.918 209.716 109.674 203.747 109.674H170.399V86.8779C170.399 80.7538 165.419 75.7574 159.277 75.7574H48.2988C42.1739 75.7574 37.1768 80.7538 37.1768 86.8779C37.1768 96.0206 37.1768 53.7768 37.1941 176.258C37.1941 182.608 42.3647 187.777 48.7153 187.777H61.1039C61.3469 199.002 70.5083 208.058 81.7865 208.058C93.0647 208.058 102.226 199.002 102.469 187.777H171.665C171.908 199.002 181.07 208.058 192.348 208.058C203.626 208.058 212.787 199.002 213.03 187.777C214.21 187.777 227.206 187.777 226.53 187.777C232.88 187.777 238.051 182.608 238.051 176.258V167.428V158.406C238.051 155.665 237.339 152.924 235.986 150.478L218.097 118.157ZM41.6533 176.258C41.6533 175.807 41.636 159.36 41.636 160.315H58.1716C59.4035 160.315 60.4099 159.308 60.4099 158.077C60.4099 156.845 59.4035 155.839 58.1716 155.839H41.636V86.8779C41.636 83.2 44.6204 80.216 48.2988 80.216H159.277C162.955 80.216 165.939 83.2 165.939 86.8779C165.939 112.519 165.939 130.874 165.939 155.873H89.5945C88.3626 155.873 87.3562 156.88 87.3562 158.111C87.3562 159.343 88.3626 160.349 89.5945 160.349H165.939V166.994C165.939 168.226 166.946 169.232 168.178 169.232C169.41 169.232 170.416 168.226 170.416 166.994V114.133H203.765C208.12 114.133 212.111 116.492 214.21 120.309L232.117 152.647C233.106 154.416 233.609 156.411 233.609 158.406V165.415C225.384 166.525 218.999 173.517 218.999 182.035V183.319H212.718C208.554 171.262 201.145 166.612 192.4 166.612C182.631 166.612 173.886 173.725 172.03 183.319H102.139C100.283 173.76 91.5725 166.612 81.7691 166.612C72.9201 166.612 64.4354 172.129 61.4336 183.319H48.6979C44.8286 183.319 41.6533 180.144 41.6533 176.258ZM81.7865 203.599C72.816 203.599 65.5285 196.313 65.5285 187.344C65.5285 178.513 72.7292 171.088 81.7865 171.088C90.7744 171.088 98.0445 178.652 98.0445 187.344C98.0445 196.313 90.757 203.599 81.7865 203.599ZM192.348 203.599C183.377 203.599 176.09 196.313 176.09 187.344C176.09 178.513 183.481 171.088 192.348 171.088C201.44 171.088 208.606 178.826 208.606 187.344C208.606 196.313 201.318 203.599 192.348 203.599ZM233.591 176.258C233.591 180.144 230.434 183.319 226.53 183.319H223.424V182.035C223.424 175.963 227.813 170.897 233.574 169.856V176.258H233.591Z" fill="#5ED5F0"/>
<path d="M179.073 151.311H185.788C187.02 151.311 188.026 150.304 188.026 149.073C188.026 147.841 187.02 146.835 185.788 146.835H181.312V124.281H204.961L217.419 146.835H195.123C193.891 146.835 192.885 147.841 192.885 149.073C192.885 150.304 193.891 151.311 195.123 151.311H221.202C221.983 151.311 222.729 150.894 223.128 150.218C223.527 149.541 223.544 148.691 223.162 147.997L208.24 120.985C207.841 120.274 207.095 119.84 206.28 119.84H179.073C177.841 119.84 176.835 120.846 176.835 122.078V149.09C176.852 150.304 177.841 151.311 179.073 151.311Z" fill="#69C8DE"/>
<path d="M48.2988 71.3332C49.5307 71.3332 50.5371 70.327 50.5371 69.0953C50.5371 67.8635 49.5307 66.8573 48.2988 66.8573C37.2635 66.8746 28.293 75.8439 28.293 86.8776C28.293 88.1094 29.2993 89.1156 30.5313 89.1156C31.7632 89.1156 32.7696 88.1094 32.7696 86.8776C32.7522 78.3074 39.7274 71.3332 48.2988 71.3332Z" fill="#8DE1F3"/>
<path d="M67.7832 160.332H79.9984C81.2303 160.332 82.2367 159.326 82.2367 158.094C82.2367 156.862 81.2303 155.856 79.9984 155.856H67.7832C66.5513 155.856 65.5449 156.862 65.5449 158.094C65.5449 159.326 66.5513 160.332 67.7832 160.332Z" fill="#69C8DE"/>
<path d="M192.504 155.11H186.414C185.182 155.11 184.176 156.116 184.176 157.348C184.176 158.58 185.182 159.586 186.414 159.586H192.504C193.736 159.586 194.743 158.58 194.743 157.348C194.725 156.116 193.736 155.11 192.504 155.11Z" fill="#69C8DE"/>
<path d="M58.3447 66.8749C57.1128 66.8749 56.1064 67.8811 56.1064 69.1128C56.1064 70.3446 57.1128 71.3508 58.3447 71.3508H62.2834C63.5154 71.3508 64.5217 70.3446 64.5217 69.1128C64.5217 67.8811 63.5154 66.8749 62.2834 66.8749H58.3447Z" fill="#8DE1F3"/>
<path d="M70.3506 66.8749C69.1187 66.8749 68.1123 67.8811 68.1123 69.1128C68.1123 70.3446 69.1187 71.3508 70.3506 71.3508H74.2893C75.5212 71.3508 76.5276 70.3446 76.5276 69.1128C76.5276 67.8811 75.5212 66.8749 74.2893 66.8749H70.3506Z" fill="#8DE1F3"/>
<path d="M82.376 66.8749C81.1441 66.8749 80.1377 67.8811 80.1377 69.1128C80.1377 70.3446 81.1441 71.3508 82.376 71.3508H86.3147C87.5466 71.3508 88.553 70.3446 88.553 69.1128C88.553 67.8811 87.5466 66.8749 86.3147 66.8749H82.376Z" fill="#8DE1F3"/>
<path d="M80.4143 143.14H127.193C130.889 143.14 133.89 140.138 133.89 136.443V99.6639C133.89 95.9686 130.889 92.9673 127.193 92.9673C86.2964 92.9326 80.2582 92.9673 80.4143 92.9673C76.7185 92.9673 73.7168 95.9686 73.7168 99.6639V136.443C73.7168 140.138 76.7185 143.14 80.4143 143.14ZM98.7545 97.4433H108.835V111.756L105.14 108.963C104.741 108.668 104.272 108.512 103.804 108.512C103.335 108.512 102.849 108.668 102.468 108.963L98.7718 111.756V97.4433H98.7545ZM78.176 99.6639C78.176 98.4148 79.165 97.4259 80.4143 97.4259H94.2952V116.214C94.2952 117.065 94.781 117.828 95.5271 118.21C96.2906 118.591 97.1929 118.504 97.8695 118.001L103.786 113.525L109.703 118.001C110.38 118.504 111.282 118.591 112.045 118.21C112.809 117.828 113.277 117.065 113.277 116.214V97.4433H127.193C128.442 97.4433 129.431 98.4321 129.431 99.6812V136.443C129.431 137.675 128.425 138.681 127.193 138.681H80.4143C79.1824 138.681 78.176 137.675 78.176 136.443V99.6639Z" fill="#67C8DE"/>
<path d="M85.2559 132.817C86.4878 132.817 87.4942 131.811 87.4942 130.579V126.016C87.4942 124.785 86.4878 123.778 85.2559 123.778C84.0239 123.778 83.0176 124.785 83.0176 126.016V130.579C83.0176 131.811 84.0239 132.817 85.2559 132.817Z" fill="#69C8DE"/>
<path d="M91.7451 132.817C92.9771 132.817 93.9834 131.811 93.9834 130.579V126.016C93.9834 124.785 92.9771 123.778 91.7451 123.778C90.5132 123.778 89.5068 124.785 89.5068 126.016V130.579C89.5242 131.811 90.5132 132.817 91.7451 132.817Z" fill="#69C8DE"/>
<path d="M98.252 132.817C99.4839 132.817 100.49 131.811 100.49 130.579V126.016C100.49 124.785 99.4839 123.778 98.252 123.778C97.02 123.778 96.0137 124.785 96.0137 126.016V130.579C96.0137 131.811 97.02 132.817 98.252 132.817Z" fill="#69C8DE"/>
<path d="M165.098 107.409C184.516 107.409 200.257 91.6672 200.257 72.2492C200.257 52.8312 184.516 37.0898 165.098 37.0898C145.68 37.0898 129.938 52.8312 129.938 72.2492C129.938 91.6672 145.68 107.409 165.098 107.409Z" fill="url(#paint7_linear_475_3222)"/>
<path d="M163.769 74.7138C162.579 75.8909 160.657 75.8675 159.497 74.6618L147.289 61.9761C146.112 60.7538 144.157 60.7492 142.975 61.9659L137.806 67.2868C136.663 68.4631 136.676 70.339 137.836 71.4987L159.468 93.1311C160.646 94.3091 162.559 94.3017 163.727 93.1146L204.417 51.7908C205.523 50.6675 205.571 48.8798 204.527 47.6988L200.345 42.9693C199.204 41.6783 197.212 41.612 195.987 42.8242L163.769 74.7138Z" fill="white"/>
<defs>
<filter id="filter0_f_475_3222" x="0.178177" y="133.181" width="250.695" height="83.5079" filterUnits="userSpaceOnUse" color-interpolation-filters="sRGB">
<feFlood flood-opacity="0" result="BackgroundImageFix"/>
<feBlend mode="normal" in="SourceGraphic" in2="BackgroundImageFix" result="shape"/>
<feGaussianBlur stdDeviation="10.8865" result="effect1_foregroundBlur_475_3222"/>
</filter>
<filter id="filter1_f_475_3222" x="113.54" y="37.7618" width="112.052" height="65.5659" filterUnits="userSpaceOnUse" color-interpolation-filters="sRGB">
<feFlood flood-opacity="0" result="BackgroundImageFix"/>
<feBlend mode="normal" in="SourceGraphic" in2="BackgroundImageFix" result="shape"/>
<feGaussianBlur stdDeviation="10.8865" result="effect1_foregroundBlur_475_3222"/>
</filter>
<linearGradient id="paint0_linear_475_3222" x1="125.836" y1="-34.9751" x2="128.036" y2="342.228" gradientUnits="userSpaceOnUse">
<stop stop-color="white"/>
<stop offset="1" stop-color="#C9ECF6"/>
</linearGradient>
<linearGradient id="paint1_linear_475_3222" x1="182.939" y1="197.057" x2="200.779" y2="212.518" gradientUnits="userSpaceOnUse">
<stop stop-color="#94BFFF"/>
<stop offset="1" stop-color="#4C94FE"/>
</linearGradient>
<linearGradient id="paint2_linear_475_3222" x1="69.2548" y1="22.0199" x2="69.2548" y2="61.1663" gradientUnits="userSpaceOnUse">
<stop stop-color="#90E3F5"/>
<stop offset="1" stop-color="#65C8DE"/>
</linearGradient>
<linearGradient id="paint3_linear_475_3222" x1="251.83" y1="172.95" x2="251.83" y2="212.097" gradientUnits="userSpaceOnUse">
<stop stop-color="#90E3F5"/>
<stop offset="1" stop-color="#65C8DE"/>
</linearGradient>
<linearGradient id="paint4_linear_475_3222" x1="24.3982" y1="162.185" x2="11.7398" y2="172.472" gradientUnits="userSpaceOnUse">
<stop stop-color="#90E3F5"/>
<stop offset="1" stop-color="#65C8DE"/>
</linearGradient>
<linearGradient id="paint5_linear_475_3222" x1="243.886" y1="51.8203" x2="255.279" y2="63.4932" gradientUnits="userSpaceOnUse">
<stop stop-color="#90E3F5"/>
<stop offset="1" stop-color="#65C8DE"/>
</linearGradient>
<linearGradient id="paint6_linear_475_3222" x1="50.2412" y1="91.1111" x2="149.639" y2="149.165" gradientUnits="userSpaceOnUse">
<stop stop-color="#ADF0FF"/>
<stop offset="1" stop-color="#79E3FA"/>
</linearGradient>
<linearGradient id="paint7_linear_475_3222" x1="130.275" y1="41.821" x2="200.3" y2="107.645" gradientUnits="userSpaceOnUse">
<stop stop-color="#5BE07E"/>
<stop offset="1" stop-color="#39BF5D"/>
</linearGradient>
</defs>
</svg>
