<svg width="21" height="21" viewBox="0 0 21 21" fill="none" xmlns="http://www.w3.org/2000/svg">
<path d="M16.5538 10.0225L20.5152 6.0425C20.9034 5.6525 20.9034 5.0225 20.5152 4.6325L16.1955 0.2925C15.8073 -0.0975 15.1802 -0.0975 14.792 0.2925L10.8306 4.2725L6.86924 0.2925C6.67018 0.1025 6.42135 0.00250003 6.16256 0.00250003C5.91373 0.00250003 5.65495 0.1025 5.46583 0.2925L1.14611 4.6325C0.757936 5.0225 0.757936 5.6525 1.14611 6.0425L5.10752 10.0225L1.14611 14.0025C0.757936 14.3925 0.757936 15.0225 1.14611 15.4125L5.46583 19.7525C5.85401 20.1425 6.48107 20.1425 6.86924 19.7525L10.8306 15.7725L14.792 19.7525C14.9911 19.9525 15.2399 20.0425 15.4987 20.0425C15.7575 20.0425 16.0063 19.9425 16.2054 19.7525L20.5251 15.4125C20.9133 15.0225 20.9133 14.3925 20.5251 14.0025L16.5538 10.0225ZM10.8506 7.0025C11.398 7.0025 11.8459 7.4525 11.8459 8.0025C11.8459 8.5525 11.398 9.0025 10.8506 9.0025C10.3031 9.0025 9.85522 8.5525 9.85522 8.0025C9.85522 7.4525 10.3031 7.0025 10.8506 7.0025ZM6.16256 8.9625L2.54952 5.3425L6.16256 1.7125L9.76565 5.3325L6.16256 8.9625ZM8.8599 11.0025C8.31247 11.0025 7.86457 10.5525 7.86457 10.0025C7.86457 9.4525 8.31247 9.0025 8.8599 9.0025C9.40733 9.0025 9.85522 9.4525 9.85522 10.0025C9.85522 10.5525 9.40733 11.0025 8.8599 11.0025ZM10.8506 13.0025C10.3031 13.0025 9.85522 12.5525 9.85522 12.0025C9.85522 11.4525 10.3031 11.0025 10.8506 11.0025C11.398 11.0025 11.8459 11.4525 11.8459 12.0025C11.8459 12.5525 11.398 13.0025 10.8506 13.0025ZM12.8412 9.0025C13.3886 9.0025 13.8365 9.4525 13.8365 10.0025C13.8365 10.5525 13.3886 11.0025 12.8412 11.0025C12.2938 11.0025 11.8459 10.5525 11.8459 10.0025C11.8459 9.4525 12.2938 9.0025 12.8412 9.0025ZM15.4888 18.3425L11.8757 14.7225L15.4888 11.0925L19.0919 14.7125L15.4888 18.3425Z" fill="white"/>
</svg>
