<svg width="48" height="48" viewBox="0 0 48 48" fill="none" xmlns="http://www.w3.org/2000/svg">
<rect x="0.5" y="0.5" width="47" height="47" rx="6.5" fill="#F0F4F9" stroke="#DFF1FA"/>
<path d="M20.4664 25.9198C21.3554 25.911 20.9776 25.911 22.4887 25.9111C23.9998 25.9285 22.4887 25.911 23.6938 25.9198C23.9157 25.9215 23.9998 25.9111 23.9998 25.9111C25.511 25.9111 25.1332 25.9111 26.6443 25.9285C27.0221 25.911 27.3998 25.911 27.48 25.911C28.6903 25.9154 29.9006 25.9224 31.1109 25.9241C32.4306 25.9267 33.7502 25.9294 35.069 25.9198C35.2841 25.918 35.3943 25.9687 35.4713 26.1863C35.7091 26.8619 35.9767 27.5278 36.2321 28.1972C36.1542 28.3353 36.0082 28.3624 35.877 28.4105C33.9286 29.1175 31.9723 29.8044 30.0169 30.4922C27.9645 31.2202 25.9102 31.9429 23.8604 32.6779C23.0812 32.9576 22.2985 33.225 21.5211 33.509C21.4188 33.5466 21.3147 33.5798 21.2028 33.5702C21.0095 33.5414 20.9133 33.3902 20.8066 33.253C18.999 30.9318 17.2124 28.5949 15.41 26.2702C15.3339 26.1723 15.2202 26.0814 15.2771 25.9285C17.0069 25.9259 18.7366 25.9224 20.4664 25.9198Z" fill="#F1D930"/>
<path d="M15.2771 25.9287C15.9872 26.863 16.6938 27.7998 17.4092 28.7297C18.5819 30.2556 19.7599 31.7771 20.9378 33.2995C21.0034 33.3843 21.0848 33.4577 21.1591 33.5364C21.1215 33.6762 20.9947 33.7007 20.8845 33.7391C19.1678 34.3395 17.4573 34.9548 15.7441 35.5648C15.5482 35.6347 15.3392 35.6469 15.146 35.7212C13.1276 35.7238 11.1092 35.7247 9.09174 35.7343C8.87661 35.7352 8.85562 35.6662 8.92296 35.4914C9.68815 33.5075 10.4525 31.5237 11.215 29.539C11.6462 28.4151 12.0773 27.2903 12.4988 26.1621C12.5609 25.996 12.6353 25.9165 12.8233 25.9182C13.6409 25.9287 14.4595 25.9261 15.2771 25.9287Z" fill="#2ADC86"/>
<path d="M15.146 35.7201C15.5754 35.478 16.0564 35.3688 16.5146 35.2019C18.0599 34.639 19.6104 34.0902 21.1591 33.5361C23.9855 32.5355 26.812 31.5339 29.6392 30.5341C29.7608 30.4913 29.8876 30.4616 30.0127 30.4258C30.15 30.4607 30.2278 30.57 30.3056 30.6731C31.4897 32.2313 32.6991 33.7703 33.8841 35.3277C33.9707 35.4413 34.1115 35.5409 34.0573 35.721C27.7538 35.721 21.4503 35.721 15.146 35.7201Z" fill="#4885DF"/>
<path d="M34.0581 35.7221C33.5342 34.932 32.9177 34.211 32.3458 33.4568C31.5762 32.4413 30.7909 31.4363 30.0126 30.4278C31.4004 29.9287 32.7883 29.4289 34.1761 28.9307C34.8609 28.6851 35.5456 28.443 36.2312 28.1992C37.187 30.6969 38.1438 33.1955 39.111 35.723C37.3926 35.7221 35.7249 35.7221 34.0581 35.7221Z" fill="#42DE93"/>
<path d="M16.4136 19.3187C16.4039 15.4073 19.1647 12.1873 22.8386 11.6417C26.9619 11.0289 30.7724 13.746 31.4704 17.8386C31.875 20.2115 31.2741 22.3397 29.6966 24.1581C28.0907 26.0102 26.4497 27.8316 24.8259 29.668C24.6356 29.8835 24.4213 30.0497 24.1227 30.0803C23.7367 30.1208 23.4425 29.9666 23.1902 29.6815C21.7784 28.0808 20.3637 26.4824 18.9452 24.8877C18.3323 24.1978 17.7171 23.5138 17.2856 22.6839C16.7085 21.5697 16.4263 20.3873 16.4136 19.3187Z" fill="#FF4841"/>
<path d="M23.9801 23.2549C21.6799 23.2429 19.8493 21.3848 19.8605 19.0748C19.8717 16.7744 21.7322 14.9373 24.0376 14.9508C26.3288 14.9635 28.1609 16.8358 28.143 19.1466C28.1258 21.435 26.2698 23.2668 23.9801 23.2549Z" fill="#FEFEFE"/>
</svg>
