<svg width="199" height="145" viewBox="0 0 199 145" fill="none" xmlns="http://www.w3.org/2000/svg">
<path d="M110.965 56.0112H87.3825C84.2339 56.0112 81.6736 58.5687 81.6736 61.6981V79.5689C81.6736 82.7142 84.2339 85.2876 87.3825 85.2876H110.965C114.114 85.2876 116.674 82.7142 116.674 79.5689V61.6981C116.674 58.5687 114.114 56.0112 110.965 56.0112ZM113.112 79.5689C113.112 80.7603 112.158 81.7452 110.965 81.7452H87.3825C86.1899 81.7452 85.2357 80.7603 85.2357 79.5689V61.6981C85.2357 60.5226 86.1899 59.5536 87.3825 59.5536H110.965C112.158 59.5536 113.112 60.5226 113.112 61.6981V79.5689Z" fill="#1D68F5"/>
<path d="M22.0881 95.1682L32.6313 100.919L22.0881 106.685L16.3156 117.217L10.5432 106.685L0 100.919L10.5432 95.1682L16.3156 84.6204L22.0881 95.1682Z" fill="#B9C9FB"/>
<path d="M176.769 129.639L184.1 133.658L176.769 137.677L172.746 145L168.722 137.677L161.391 133.658L168.722 129.639L172.746 122.316L176.769 129.639Z" fill="#B9C9FB"/>
<path d="M192.83 6.16345L199 9.547L192.83 12.9147L189.443 19.094L186.072 12.9147L179.901 9.547L186.072 6.16345L189.443 0L192.83 6.16345Z" fill="#B9C9FB"/>
<path d="M96.1764 19.4752L62.5274 28.1644C56.5164 29.7212 52.6999 35.5987 53.7494 41.6986C56.5323 57.8697 62.4161 87.448 69.6357 96.8043C72.8797 100.998 77.0779 104.667 81.292 107.686C91.9465 115.358 106.354 115.358 117.024 107.686C121.222 104.652 125.436 100.998 128.681 96.8043C135.916 87.448 141.8 57.8697 144.583 41.6986C145.632 35.5828 141.816 29.7053 135.805 28.1644L102.14 19.4752C100.184 18.9669 98.1324 18.9669 96.1764 19.4752ZM125.134 93.9132C122.654 97.2173 119.553 100.14 116.372 102.65C106.274 110.593 92.0578 110.593 81.9599 102.65C78.7794 100.14 75.6785 97.2173 73.2137 93.9132C66.4712 84.9063 61.0485 55.3122 58.8222 41.4286C58.1543 37.2984 60.7623 33.343 64.8173 32.3105L96.2082 24.3043C98.1483 23.8119 100.168 23.8119 102.108 24.3043L133.515 32.3105C137.57 33.343 140.178 37.2984 139.51 41.4286C137.3 55.3122 131.877 84.9222 125.134 93.9132Z" fill="#1D68F5"/>
<path d="M110.791 54.5974V56.0112H107.228V54.5974C107.228 50.1654 103.619 46.5595 99.1819 46.5595C94.7293 46.5595 91.1195 50.1654 91.1195 54.5974V56.0112H87.5574V54.5974C87.5574 48.1957 92.7733 42.9853 99.1819 42.9853C105.575 42.9853 110.791 48.1957 110.791 54.5974Z" fill="#5076ED"/>
</svg>
