<svg width="14" height="14" viewBox="0 0 14 14" fill="none" xmlns="http://www.w3.org/2000/svg">
<g clip-path="url(#clip0_2992_4172)">
<path d="M12.8162 10.6926C12.8162 10.9026 12.7695 11.1184 12.6703 11.3284C12.5712 11.5384 12.4428 11.7367 12.2737 11.9234C11.9878 12.2384 11.6728 12.4659 11.317 12.6117C10.967 12.7576 10.5878 12.8334 10.1795 12.8334C9.58449 12.8334 8.94866 12.6934 8.27783 12.4076C7.60699 12.1217 6.93616 11.7367 6.27116 11.2526C5.59339 10.7568 4.95381 10.2108 4.35783 9.61925C3.76794 9.02542 3.22388 8.38776 2.73033 7.71175C2.25199 7.04675 1.86699 6.38175 1.58699 5.72258C1.30699 5.05758 1.16699 4.42175 1.16699 3.81508C1.16699 3.41841 1.23699 3.03925 1.37699 2.68925C1.51699 2.33341 1.73866 2.00675 2.04783 1.71508C2.42116 1.34758 2.82949 1.16675 3.26116 1.16675C3.42449 1.16675 3.58783 1.20175 3.73366 1.27175C3.88533 1.34175 4.01949 1.44675 4.12449 1.59841L5.47783 3.50592C5.58283 3.65175 5.65866 3.78591 5.71116 3.91425C5.76366 4.03675 5.79283 4.15925 5.79283 4.27008C5.79283 4.41008 5.75199 4.55008 5.67033 4.68425C5.59449 4.81841 5.48366 4.95841 5.34366 5.09841L4.90033 5.55925C4.83616 5.62341 4.80699 5.69925 4.80699 5.79258C4.80699 5.83925 4.81283 5.88008 4.82449 5.92675C4.84199 5.97341 4.85949 6.00841 4.87116 6.04341C4.97616 6.23591 5.15699 6.48675 5.41366 6.79008C5.67616 7.09342 5.95616 7.40258 6.25949 7.71175C6.57449 8.02092 6.87783 8.30675 7.18699 8.56925C7.49033 8.82591 7.74116 9.00092 7.93949 9.10592C7.96866 9.11758 8.00366 9.13508 8.04449 9.15258C8.09116 9.17008 8.13783 9.17591 8.19033 9.17591C8.28949 9.17591 8.36533 9.14092 8.42949 9.07675L8.87283 8.63925C9.01866 8.49342 9.15866 8.38258 9.29283 8.31258C9.42699 8.23092 9.56116 8.19008 9.70699 8.19008C9.81782 8.19008 9.93449 8.21342 10.0628 8.26592C10.1912 8.31842 10.3253 8.39425 10.4712 8.49342L12.402 9.86425C12.5537 9.96925 12.6587 10.0917 12.7228 10.2376C12.7812 10.3834 12.8162 10.5292 12.8162 10.6926Z" stroke="#8A91A8" stroke-width="1.5" stroke-miterlimit="10"/>
<path d="M8.75 3.48258L9.91667 4.64925L12.25 2.31592" stroke="#8A91A8" stroke-width="1.5" stroke-linecap="round" stroke-linejoin="round"/>
</g>
<defs>
<clipPath id="clip0_2992_4172">
<rect width="14" height="14" fill="white"/>
</clipPath>
</defs>
</svg>
