<svg width="32" height="33" viewBox="0 0 32 33" fill="none" xmlns="http://www.w3.org/2000/svg">
<g clip-path="url(#clip0_2984_4111)">
<path d="M31.9713 10.1562L31.5668 6.13996C30.9744 1.77698 28.9952 0 24.7478 0H13.6526C13.6381 0 13.6381 0 13.6237 0H9.21734C4.96993 0 2.9907 1.77698 2.38393 6.1833L1.97941 10.1562C1.83494 11.6154 2.19612 13.0023 2.9907 14.1436C2.96181 14.2302 2.94736 14.3169 2.94736 14.4036V18.1165C2.9907 18.0731 3.01959 18.0154 3.09183 17.9865C3.55413 17.7409 3.79973 17.6686 4.23314 17.4664C4.52208 17.3363 4.81102 17.163 5.1144 17.0474V15.9783C5.92343 16.3973 6.84804 16.614 7.83043 16.614C9.66519 16.614 11.3844 15.6749 12.4823 14.2591C12.6268 14.4614 12.7713 14.6637 12.9447 14.8515C13.9704 15.9928 15.4151 16.614 17.0042 16.614C18.5934 16.614 20.0381 15.9928 21.1072 14.8515C21.2516 14.6926 21.3961 14.5192 21.5117 14.3314C22.6097 15.7038 24.3 16.614 26.1203 16.614C27.1171 16.614 28.0706 16.3828 28.8941 15.9494V20.8758C28.8941 26.7847 26.7993 28.8795 20.8905 28.8795H15.5451C15.444 29.0673 15.3428 29.2551 15.2273 29.4429C14.8661 30.0786 14.4182 30.6275 13.927 31.061H20.9049C28.0273 31.061 31.0756 28.0126 31.0611 20.8758V14.3892C31.0611 14.2736 31.0467 14.1725 31.0033 14.0713C31.7835 12.9445 32.1158 11.5865 31.9713 10.1562ZM20.2693 11.3264C20.2548 12.1065 19.9659 12.8289 19.4747 13.3923C18.2467 14.7503 15.7907 14.7503 14.5627 13.3923C13.9559 12.7278 13.667 11.8176 13.7681 10.8497L14.6349 2.16704H19.4024L20.2693 10.8497C20.2837 11.0086 20.2981 11.1675 20.2693 11.3264Z" fill="#0D3FE9"/>
<path d="M11.4709 21.5404C11.2975 21.3526 11.0808 21.1359 10.9363 21.0348C9.73725 19.9801 8.23476 19.4312 6.6167 19.4312C5.48984 19.4312 4.36298 19.7345 3.39503 20.2691C3.06275 20.4569 2.75937 20.6591 2.48488 20.8903C0.910158 22.1472 0 24.0253 0 26.0623C0 27.2903 0.33228 28.4605 0.953499 29.4573C1.08352 29.7174 1.27133 29.963 1.47359 30.223C1.51693 30.2953 1.57472 30.3386 1.58916 30.353C2.84605 31.8555 4.66637 32.7079 6.6167 32.7079C8.24921 32.7079 9.80948 32.1156 10.9075 31.0465C11.0086 30.9743 11.0808 30.8876 11.1675 30.8009C11.5865 30.4397 11.9621 29.9774 12.2655 29.4573C12.9011 28.4316 13.2334 27.247 13.2334 26.0334C13.2334 24.372 12.6122 22.7828 11.4709 21.5404ZM9.65056 26.9725H7.52686V29.0962C7.52686 29.6018 7.12235 30.0063 6.6167 30.0063C6.11106 30.0063 5.70655 29.6018 5.70655 29.0962V26.9725H3.58284C3.0772 26.9725 2.67269 26.5679 2.67269 26.0623C2.67269 25.5567 3.0772 25.1521 3.58284 25.1521H5.70655V23.0284C5.70655 22.5372 6.11106 22.1183 6.6167 22.1183C7.12235 22.1183 7.52686 22.5372 7.52686 23.0284V25.1521H9.65056C10.1418 25.1521 10.5607 25.5567 10.5607 26.0623C10.5607 26.5679 10.1418 26.9725 9.65056 26.9725Z" fill="#0D3FE9"/>
</g>
<defs>
<clipPath id="clip0_2984_4111">
<rect width="32" height="32.7079" fill="white"/>
</clipPath>
</defs>
</svg>
