<svg width="184" height="134" viewBox="0 0 184 134" fill="none" xmlns="http://www.w3.org/2000/svg">
<path d="M102.601 51.7621H80.7959C77.8846 51.7621 75.5173 54.1256 75.5173 57.0175V73.5327C75.5173 76.4393 77.8846 78.8175 80.7959 78.8175H102.601C105.513 78.8175 107.88 76.4393 107.88 73.5327V57.0175C107.88 54.1256 105.513 51.7621 102.601 51.7621ZM104.586 73.5327C104.586 74.6337 103.704 75.5438 102.601 75.5438H80.7959C79.6931 75.5438 78.8109 74.6337 78.8109 73.5327V57.0175C78.8109 55.9312 79.6931 55.0357 80.7959 55.0357H102.601C103.704 55.0357 104.586 55.9312 104.586 57.0175V73.5327Z" fill="#1D68F5"/>
<path d="M20.4232 87.9485L30.1716 93.2627L20.4232 98.5916L15.0858 108.324L9.74844 98.5916L0 93.2627L9.74844 87.9485L15.0858 78.2009L20.4232 87.9485Z" fill="#B9C9FB"/>
<path d="M163.444 119.804L170.223 123.518L163.444 127.232L159.724 134L156.004 127.232L149.226 123.518L156.004 119.804L159.724 113.037L163.444 119.804Z" fill="#B9C9FB"/>
<path d="M178.295 5.69588L184 8.82274L178.295 11.9349L175.163 17.6455L172.046 11.9349L166.341 8.82274L172.046 5.69588L175.163 0L178.295 5.69588Z" fill="#B9C9FB"/>
<path d="M88.9268 17.9978L57.8142 26.0278C52.2562 27.4665 48.7274 32.8981 49.6978 38.5353C52.2709 53.4796 57.7113 80.814 64.3867 89.4606C67.3862 93.3361 71.2679 96.7272 75.1643 99.5164C85.0157 106.607 98.3371 106.607 108.203 99.5164C112.085 96.7125 115.981 93.3361 118.981 89.4606C125.671 80.814 131.111 53.4796 133.684 38.5353C134.655 32.8834 131.126 27.4518 125.568 26.0278L94.4407 17.9978C92.6321 17.5281 90.7354 17.5281 88.9268 17.9978ZM115.702 86.7888C113.408 89.8422 110.541 92.5434 107.6 94.8629C98.2636 102.203 85.1186 102.203 75.7819 94.8629C72.8412 92.5434 69.974 89.8422 67.695 86.7888C61.4607 78.4652 56.4467 51.1161 54.3883 38.2857C53.7707 34.4689 56.1821 30.8135 59.9315 29.8593L88.9563 22.4606C90.7501 22.0055 92.6174 22.0055 94.4113 22.4606L123.451 29.8593C127.2 30.8135 129.612 34.4689 128.994 38.2857C126.95 51.1161 121.936 78.4798 115.702 86.7888Z" fill="#1D68F5"/>
<path d="M102.44 50.4555V51.762H99.146V50.4555C99.146 46.3598 95.8083 43.0274 91.706 43.0274C87.5891 43.0274 84.2514 46.3598 84.2514 50.4555V51.762H80.9578V50.4555C80.9578 44.5394 85.7805 39.7244 91.706 39.7244C97.6169 39.7244 102.44 44.5394 102.44 50.4555Z" fill="#5076ED"/>
</svg>
