<?xml version="1.0" encoding="utf-8"?>
<!-- Generator: Adobe Illustrator 23.0.2, SVG Export Plug-In . SVG Version: 6.00 Build 0)  -->
<svg version="1.1" id="Layer_1" xmlns="http://www.w3.org/2000/svg" xmlns:xlink="http://www.w3.org/1999/xlink" x="0px" y="0px"
	 viewBox="0 0 297.7 206.55" style="enable-background:new 0 0 297.7 206.55;" xml:space="preserve">
<g>
	<g>
		<g>
			<g>
				<rect x="173.15" y="171" fill="#0E4E96" width="32.47" height="3.09"/>
			</g>
			<g>
				<rect x="212.43" y="171" fill="#0E4E96" width="82.94" height="3.09"/>
			</g>
			<g>
				<rect x="2.71" y="171" fill="#0E4E96" width="162.86" height="3.09"/>
			</g>
		</g>
	</g>
	<g>
		<g>
			<g>
				<g>
					<g>
						<path fill="#0E4E96" d="M13.65,2.37h-2.13c-0.71,0-1.29,0.58-1.29,1.29v6.77h3.66c0.61,0,1.12-0.21,1.55-0.64
							c0.43-0.43,0.64-0.95,0.64-1.55c0-0.61-0.21-1.12-0.64-1.55c-0.14-0.14-0.3-0.26-0.47-0.36c0.08-0.06,0.15-0.12,0.22-0.2
							c0.43-0.43,0.64-0.95,0.64-1.55c0-0.61-0.21-1.12-0.64-1.55C14.77,2.59,14.25,2.37,13.65,2.37L13.65,2.37z M10.97,6.03V3.7
							c0-0.33,0.27-0.6,0.6-0.6h2.08c0.4,0,0.75,0.14,1.03,0.43c0.28,0.28,0.43,0.66,0.43,1.05c0,0.38-0.14,0.71-0.4,0.98
							c-0.29,0.3-0.7,0.46-1.12,0.46H10.97L10.97,6.03z M10.97,9.69V6.76h2.92c0.4,0,0.75,0.14,1.03,0.43
							c0.29,0.29,0.43,0.63,0.43,1.03c0,0.4-0.14,0.75-0.43,1.03c-0.29,0.29-0.63,0.43-1.03,0.43H10.97L10.97,9.69z"/>
						<polygon fill="#0E4E96" points="17.65,2.37 16.92,2.37 16.92,10.43 17.65,10.43 17.65,2.37 						"/>
						<path fill="#0E4E96" d="M24.58,4.08h-0.73v4.5c-0.12,0.23-0.27,0.45-0.47,0.64c-0.48,0.48-1.05,0.71-1.73,0.71
							c-0.68,0-1.25-0.24-1.73-0.71c-0.48-0.48-0.71-1.05-0.71-1.73V4.08h-0.73V7.5c0,0.88,0.31,1.63,0.93,2.25
							c0.62,0.62,1.37,0.93,2.25,0.93c0.85,0,1.58-0.29,2.2-0.88l0,0.63h0.73V4.08L24.58,4.08z"/>
						<path fill="#0E4E96" d="M28.58,3.83c-0.94,0-1.75,0.33-2.42,1c-0.67,0.67-1,1.47-1,2.42c0,0.94,0.33,1.75,1,2.42
							c0.67,0.67,1.47,1,2.42,1c0.94,0,1.75-0.34,2.42-1.01l-0.52-0.52c-0.53,0.53-1.16,0.79-1.9,0.79c-0.61,0-1.15-0.18-1.62-0.54
							l4.29-4.29c-0.08-0.1-0.16-0.19-0.24-0.28C30.33,4.17,29.53,3.83,28.58,3.83L28.58,3.83z M26.45,8.88
							c-0.36-0.47-0.55-1.01-0.55-1.63c0-0.74,0.26-1.37,0.79-1.9c0.52-0.52,1.16-0.79,1.9-0.79c0.62,0,1.16,0.18,1.63,0.55
							L26.45,8.88L26.45,8.88z"/>
						<g>
							<path fill="#00ABE6" d="M32.29,3.66c0-0.71,0.58-1.29,1.29-1.29h2.13c0.61,0,1.12,0.21,1.55,0.64c0.43,0.43,0.64,0.95,0.64,1.55
								c0,0.61-0.21,1.12-0.64,1.55c-0.07,0.07-0.15,0.14-0.22,0.2c0.17,0.1,0.33,0.22,0.47,0.36c0.43,0.43,0.64,0.95,0.64,1.55
								c0,0.61-0.21,1.12-0.64,1.55c-0.43,0.43-0.95,0.64-1.55,0.64h-3.66V3.66z M33.03,3.65v2.38l2.62,0
								c0.42,0,0.83-0.16,1.12-0.46c0.26-0.28,0.39-0.6,0.4-0.98c0-0.39-0.15-0.78-0.43-1.05c-0.29-0.29-0.63-0.43-1.03-0.43h-2.12
								C33.28,3.1,33.03,3.35,33.03,3.65z M33.03,6.76v2.93h2.92c0.4,0,0.75-0.14,1.03-0.43c0.29-0.29,0.43-0.63,0.43-1.03
								c0-0.4-0.14-0.75-0.43-1.03c-0.29-0.29-0.63-0.43-1.03-0.43H33.03z"/>
						</g>
						<g>
							<path fill="#00ABE6" d="M40.29,9.4c0.47,0.36,1.01,0.54,1.62,0.54c0.74,0,1.38-0.26,1.9-0.79l0.52,0.52
								c-0.67,0.67-1.48,1.01-2.42,1.01c-0.94,0-1.75-0.33-2.42-1c-0.67-0.67-1-1.47-1-2.42c0-0.94,0.33-1.75,1-2.42
								c0.67-0.67,1.47-1,2.42-1c0.94,0,1.75,0.33,2.42,1c0.08,0.09,0.17,0.19,0.24,0.28L40.29,9.4z M43.54,5.11
								c-0.47-0.36-1.01-0.55-1.63-0.55c-0.74,0-1.38,0.26-1.9,0.79c-0.52,0.52-0.79,1.16-0.79,1.9c0,0.62,0.18,1.16,0.55,1.63
								L43.54,5.11z"/>
						</g>
						<g>
							<path fill="#00ABE6" d="M46.49,9.4c0.47,0.36,1.01,0.54,1.62,0.54c0.74,0,1.38-0.26,1.9-0.79l0.52,0.52
								c-0.67,0.67-1.48,1.01-2.42,1.01c-0.94,0-1.75-0.33-2.42-1c-0.67-0.67-1-1.47-1-2.42c0-0.94,0.33-1.75,1-2.42
								c0.67-0.67,1.47-1,2.42-1c0.94,0,1.75,0.33,2.42,1c0.08,0.09,0.17,0.19,0.24,0.28L46.49,9.4z M49.74,5.11
								c-0.47-0.36-1.01-0.55-1.63-0.55c-0.74,0-1.38,0.26-1.9,0.79c-0.52,0.52-0.79,1.16-0.79,1.9c0,0.62,0.18,1.16,0.55,1.63
								L49.74,5.11z"/>
						</g>
					</g>
				</g>
				<path fill="#00ABE6" d="M55.24,7.74c-0.16-0.19-0.38-0.36-0.64-0.49h0.01c-0.14-0.07-0.3-0.12-0.48-0.17L52.7,6.72
					c-0.33-0.09-0.57-0.23-0.72-0.41c-0.16-0.18-0.23-0.39-0.23-0.64c0-0.29,0.12-0.54,0.37-0.76c0.25-0.22,0.61-0.33,1.08-0.35
					c0.66,0,1.24,0.18,1.75,0.53l0.57-0.49c-0.62-0.51-1.4-0.77-2.32-0.77C52.53,3.85,52,4.03,51.6,4.39
					c-0.4,0.35-0.6,0.78-0.6,1.27c0,0.43,0.13,0.8,0.39,1.1c0.16,0.19,0.38,0.36,0.64,0.49h-0.01c0.14,0.07,0.3,0.12,0.48,0.17
					l1.44,0.37c0.33,0.09,0.57,0.23,0.72,0.41c0.16,0.18,0.23,0.39,0.23,0.64c0,0.29-0.12,0.54-0.37,0.76
					c-0.25,0.22-0.61,0.33-1.08,0.35c-0.66,0-1.24-0.18-1.75-0.53L51.12,9.9c0.62,0.51,1.4,0.77,2.32,0.77
					c0.66-0.01,1.18-0.2,1.58-0.55c0.4-0.35,0.6-0.78,0.6-1.27C55.62,8.41,55.5,8.05,55.24,7.74z"/>
				<g>
					<g>
						<g>
							<g>
								<path fill="#0E4E96" d="M51.11,4.86c0.28-0.32,0.63-0.57,1.01-0.73c0.38-0.17,0.79-0.25,1.2-0.25c0.41,0,0.82,0.08,1.2,0.25
									c0.38,0.16,0.73,0.41,1,0.73c-0.37-0.18-0.73-0.32-1.09-0.42c-0.37-0.09-0.74-0.14-1.11-0.14c-0.37,0-0.74,0.05-1.11,0.14
									C51.83,4.54,51.47,4.68,51.11,4.86z"/>
							</g>
							<g>
								<path fill="#0E4E96" d="M51.67,3.79c0.2-0.25,0.46-0.43,0.75-0.56c0.28-0.13,0.59-0.19,0.9-0.19c0.31,0,0.62,0.07,0.9,0.19
									c0.28,0.13,0.55,0.31,0.75,0.56c-0.28-0.13-0.55-0.23-0.82-0.3c-0.27-0.07-0.55-0.1-0.83-0.1c-0.28,0-0.55,0.03-0.83,0.1
									C52.21,3.56,51.94,3.67,51.67,3.79z"/>
							</g>
						</g>
						<g>
							<g>
								<path fill="#0E4E96" d="M55.52,10.73c-0.28,0.32-0.63,0.57-1.01,0.73c-0.38,0.17-0.79,0.25-1.2,0.25
									c-0.41,0-0.82-0.08-1.2-0.25c-0.38-0.16-0.73-0.41-1-0.73c0.37,0.18,0.73,0.32,1.09,0.42c0.37,0.09,0.74,0.14,1.11,0.14
									c0.37,0,0.74-0.05,1.11-0.14C54.8,11.05,55.16,10.91,55.52,10.73z"/>
							</g>
							<g>
								<path fill="#0E4E96" d="M54.97,11.79c-0.2,0.25-0.46,0.43-0.75,0.56c-0.28,0.13-0.59,0.19-0.9,0.19c-0.31,0-0.62-0.07-0.9-0.19
									c-0.28-0.13-0.55-0.31-0.75-0.56c0.28,0.13,0.55,0.23,0.82,0.3c0.27,0.07,0.55,0.1,0.83,0.1c0.28,0,0.55-0.03,0.83-0.1
									C54.42,12.02,54.69,11.92,54.97,11.79z"/>
							</g>
						</g>
					</g>
				</g>
			</g>
			<g>
				<g>
					<path fill="#0E4E96" d="M53.71,17.87l-0.2-0.73h-3.19l-0.21,0.73h-0.44c0.15-0.52,0.3-1.02,0.44-1.5c0.14-0.48,0.3-0.91,0.47-1.28
						c0.19-0.4,0.4-0.71,0.63-0.91c0.23-0.2,0.46-0.3,0.7-0.3c0.24,0,0.47,0.1,0.7,0.3c0.23,0.2,0.44,0.5,0.62,0.91
						c0.16,0.34,0.31,0.73,0.45,1.19c0.14,0.46,0.3,0.99,0.47,1.59H53.71z M52.87,15.27c-0.16-0.34-0.33-0.59-0.49-0.74
						c-0.16-0.16-0.33-0.23-0.49-0.22c-0.16,0.01-0.32,0.1-0.47,0.27c-0.15,0.17-0.3,0.4-0.44,0.69c-0.1,0.2-0.19,0.43-0.27,0.67
						c-0.09,0.25-0.17,0.51-0.25,0.79h2.95c-0.09-0.28-0.17-0.54-0.26-0.79C53.05,15.7,52.96,15.47,52.87,15.27z"/>
					<path fill="#0E4E96" d="M55.18,17.87v-3.98h0.41v3.98H55.18z"/>
				</g>
			</g>
		</g>
		
			<linearGradient id="SVGID_1_" gradientUnits="userSpaceOnUse" x1="3093.7349" y1="-275.05" x2="3131.6963" y2="-275.05" gradientTransform="matrix(-1 0 0 -1 3141.937 -259.215)">
			<stop  offset="0.5642" style="stop-color:#235499"/>
			<stop  offset="0.6046" style="stop-color:#2C579B"/>
			<stop  offset="0.6624" style="stop-color:#3F60A1"/>
			<stop  offset="0.7306" style="stop-color:#5A6FAA"/>
			<stop  offset="0.8068" style="stop-color:#7B87B9"/>
			<stop  offset="0.8896" style="stop-color:#A8AED1"/>
			<stop  offset="0.9767" style="stop-color:#E7E8F2"/>
			<stop  offset="1" style="stop-color:#FFFFFF"/>
		</linearGradient>
		<polygon fill="url(#SVGID_1_)" points="48.2,16.04 10.24,16.04 10.24,15.63 48.2,15.63 		"/>
	</g>
	<g>
		<g opacity="0.1">
			<path fill="#0E4E96" d="M189.35,148.22c0.15-7.07,2.07-13.99,5.23-20.2c3.11-6.25,7.55-11.79,12.87-16.26
				c5.32-4.46,11.54-7.88,18.24-9.86c6.67-2.03,13.81-2.72,20.8-1.64c-6.63,1.73-12.83,3.81-18.63,6.58
				c-5.77,2.81-11.12,6.21-15.94,10.26c-4.83,4.04-9.11,8.73-12.87,13.92C195.31,136.23,192.19,141.99,189.35,148.22z"/>
			<path fill="#0E4E96" d="M185.19,128.62c0-5.32,1.38-10.54,3.72-15.23c2.33-4.7,5.61-8.9,9.62-12.26c3.99-3.37,8.71-5.87,13.73-7.36
				c5.02-1.49,10.4-1.94,15.64-1.01c-4.94,1.41-9.54,3.03-13.83,5.13c-4.29,2.1-8.22,4.69-11.82,7.68
				c-3.58,3.01-6.81,6.45-9.62,10.3C189.81,119.74,187.43,124,185.19,128.62z"/>
		</g>
		<path fill="#0E4E96" opacity="0.1" d="M226.18,71.45h-48.55c-4.49,0-8.13-3.64-8.13-8.13V10.5c0-4.49,3.64-8.13,8.13-8.13h48.55
			c4.49,0,8.13,3.64,8.13,8.13v52.83C234.31,67.81,230.67,71.45,226.18,71.45z"/>
		<g opacity="0.1">
			<path fill="#0E4E96" d="M150.77,133.8c-10.25-38.14-3.4-24.51-8.82-35.36c-5.35-10.92-13.02-20.56-22.24-28.33
				c-9.24-7.75-20.07-13.64-31.75-17.02c-11.63-3.46-24.11-4.56-36.36-2.54c11.56,2.92,22.39,6.47,32.48,11.24
				c10.04,4.83,19.35,10.72,27.72,17.74c8.38,7.02,15.79,15.17,22.29,24.22C140.53,112.87,145.9,122.92,150.77,133.8z"/>
			<path fill="#0E4E96" d="M158.36,99.34c0.09-9.34-2.25-18.47-6.25-26.66c-4-8.2-9.67-15.53-16.62-21.35
				c-6.93-5.85-15.13-10.16-23.91-12.69c-8.76-2.53-18.16-3.24-27.35-1.53c8.61,2.4,16.63,5.16,24.11,8.78
				c7.47,3.61,14.31,8.1,20.55,13.29c6.21,5.23,11.81,11.2,16.67,17.93C150.41,83.84,154.52,91.27,158.36,99.34z"/>
		</g>
		<g>
			<g>
				<path fill="#FFFFFF" d="M117.16,147.09c2.26,0,4.42,0,6.78,0c0-2.36,0-4.52,0-6.9c2.36,0,4.51,0,6.83,0c0-2.32,0-4.42,0-6.71
					c1.72,0,3.27,0,4.81,0c2.29,0,2.29,0.01,2.29,2.23c0,1.47,0,2.94,0,4.55c1.84,0,3.39,0.09,4.93-0.03
					c1.4-0.11,1.76,0.42,1.75,1.76c-0.06,5.64-0.03,11.28-0.03,16.92c0,0.66,0,1.32,0,1.93c4.65,0,9,0,13.3,0c0-2.28,0-4.44,0-6.73
					c-2.19,0-4.23,0-6.29,0c0-9.2,0-18.25,0-27.45c2.2,0,4.25,0,6.46,0c0-2.31,0-4.47,0-6.83c2.42,0,4.69,0,7.13,0
					c0-3.51,0-6.83,0-10.33c2.28,0,4.38,0,6.68,0c0-8.03,0-15.88,0-23.73c2.48,0,4.75,0,7.27,0c0,2.2,0,4.29,0,6.36
					c2.24,0,4.23,0,6.31,0c0-4.07-0.01-8.04,0.01-12.01c0.01-1.06-0.59-1.19-1.45-1.19c-3.4,0.02-6.79,0.01-10.19,0
					c-0.6,0-1.21-0.07-1.94-0.12c0-4.04,0.08-7.89-0.04-11.74c-0.05-1.62,0.37-2.17,2.08-2.15c7.71,0.09,10.62,0.04,18.33,0.04
					c0.66,0,1.32,0,1.92,0c0-2.33,0-4.37,0-6.48c-0.78,0-1.41,0-2.04,0c-5.53,0-6.24,0.02-11.77-0.04
					c-0.53-0.01-1.51-0.47-1.52-0.76c-0.13-2.27-0.07-4.55-0.07-6.97c11.35,0,9.67,0,20.88,0c0-9.77,0-19.4,0-29.19
					c-1.99,0-3.87,0-6,0c0-2.59,0-5.03,0-7.47c-18.41,0-23.73,0-42.1,0c0,2.28,0,4.43,0,6.83c-2.41,0-4.62,0-7,0
					c0,14.95,0,29.66,0,44.56c-2.29,0-4.39,0-6.68,0c0,2.37,0,4.54,0,6.91c-3.5,0-6.81,0-10.23,0c0,2.2,0,4.2,0,6.49
					c-3.47,0-6.81,0-10.31,0c0,2.52,0,4.74,0,7.18c-1.75,0-3.36,0.12-4.94-0.03c-1.73-0.16-2.22,0.52-2.07,2.14
					c0.13,1.46,0.03,2.95,0.03,4.45c-4.74,0-9.21,0-13.88,0c0-2.19,0-4.28,0-6.55c-2.37,0-4.53,0-6.89,0c0-2.38,0-4.59,0-6.94
					c-2.38,0-4.54,0-6.92,0c0-4.65,0-9.16,0-13.6c-2.26,0-4.3,0-6.27,0c0,13.58,0,27.02,0,40.6c2.19,0,4.24,0,6.49,0
					c0,2.35,0,4.55,0,6.92c2.43,0,4.64,0,7.07,0c0,2.32,0,4.48,0,6.82c2.31,0,4.42,0,6.71,0c0,2.39,0,4.6,0,6.96
					c2.36,0,4.53,0,6.89,0c0,2.24,0,4.34,0,6.57c2.31,0,4.42,0,6.81,0c0,9.25,0,18.36,0,27.44c4.74,0,9.19,0,13.6,0
					c0-2.29,0-4.44,0-6.73c-2.31,0-4.49,0-6.75,0C117.16,151.74,117.16,149.52,117.16,147.09z"/>
				<path fill="#FED502" d="M117.16,147.09c0,2.42,0,4.64,0,7.01c2.27,0,4.44,0,6.75,0c0,2.29,0,4.44,0,6.73c-4.42,0-8.87,0-13.6,0
					c0-9.09,0-18.19,0-27.44c-2.39,0-4.5,0-6.81,0c0-2.24,0-4.33,0-6.57c-2.37,0-4.53,0-6.89,0c0-2.36,0-4.57,0-6.96
					c-2.3,0-4.4,0-6.71,0c0-2.34,0-4.5,0-6.82c-2.43,0-4.65,0-7.07,0c0-2.37,0-4.58,0-6.92c-2.26,0-4.3,0-6.49,0
					c0-13.58,0-27.01,0-40.6c1.97,0,4.01,0,6.27,0c0,4.44,0,8.95,0,13.6c2.38,0,4.55,0,6.92,0c0,2.34,0,4.55,0,6.94
					c2.36,0,4.52,0,6.89,0c0,2.26,0,4.36,0,6.55c4.68,0,9.14,0,13.88,0c0-1.5,0.1-2.99-0.03-4.45c-0.14-1.63,0.34-2.3,2.07-2.14
					c1.58,0.15,3.19,0.03,4.94,0.03c0-2.44,0-4.67,0-7.18c3.49,0,6.84,0,10.31,0c0-2.29,0-4.29,0-6.49c3.42,0,6.73,0,10.23,0
					c0-2.37,0-4.54,0-6.91c2.29,0,4.39,0,6.68,0c0-14.9,0-29.61,0-44.56c2.38,0,4.58,0,7,0c0-2.4,0-4.55,0-6.83
					c18.37,0,23.69,0,42.1,0c0,2.44,0,4.88,0,7.47c2.13,0,4.01,0,6,0c0,9.79,0,19.42,0,29.19c-11.21,0-9.53,0-20.88,0
					c0,2.42-0.06,4.7,0.07,6.97c0.02,0.29,0.99,0.76,1.52,0.76c5.53,0.06,6.24,0.03,11.77,0.04c0.63,0,1.26,0,2.04,0
					c0,2.11,0,4.15,0,6.48c-0.6,0-1.26,0-1.92,0c-7.71,0-10.62,0.05-18.33-0.04c-1.71-0.02-2.12,0.53-2.08,2.15
					c0.11,3.84,0.04,7.7,0.04,11.74c0.73,0.05,1.34,0.12,1.94,0.12c3.4,0.01,6.79,0.02,10.19,0c0.86-0.01,1.46,0.13,1.45,1.19
					c-0.02,3.97-0.01,7.93-0.01,12.01c-2.08,0-4.07,0-6.31,0c0-2.07,0-4.16,0-6.36c-2.52,0-4.79,0-7.27,0c0,7.85,0,15.7,0,23.73
					c-2.31,0-4.41,0-6.68,0c0,3.5,0,6.81,0,10.33c-2.44,0-4.71,0-7.13,0c0,2.36,0,4.52,0,6.83c-2.21,0-4.26,0-6.46,0
					c0,9.2,0,18.25,0,27.45c2.05,0,4.1,0,6.29,0c0,2.29,0,4.45,0,6.73c-4.3,0-8.64,0-13.3,0c0-0.61,0-1.27,0-1.93
					c0-5.64-0.04-11.28,0.03-16.92c0.01-1.34-0.35-1.87-1.75-1.76c-1.54,0.12-3.09,0.03-4.93,0.03c0-1.61,0-3.08,0-4.55
					c0-2.22-0.01-2.22-2.29-2.23c-1.54,0-3.09,0-4.81,0c0,2.3,0,4.39,0,6.71c-2.32,0-4.47,0-6.83,0c0,2.38,0,4.54,0,6.9
					C121.57,147.09,119.42,147.09,117.16,147.09z M158.36,24.26c0,2.39,0,4.59,0,6.92c2.04,0,3.92,0.03,5.8-0.03
					c0.35-0.01,0.99-0.39,0.99-0.62c0.08-2.08,0.05-4.17,0.05-6.27C162.75,24.26,160.59,24.26,158.36,24.26z"/>
			</g>
		</g>
		<rect x="196.31" y="31.18" fill="#FED502" width="7.68" height="4.05"/>
		<rect x="194.23" y="25.25" fill="#FED502" width="7.68" height="4.05"/>
	</g>
	<g>
		<path fill="#0E4E96" d="M30.17,201.49h-2.11l-8.48-13.45v13.45h-2.11v-17.02h2.11l8.48,13.47v-13.47h2.11V201.49z"/>
		<path fill="#0E4E96" d="M42.6,188.89c0.97,0.55,1.72,1.34,2.27,2.37c0.55,1.03,0.82,2.24,0.82,3.62c0,1.38-0.27,2.59-0.82,3.61
			c-0.55,1.02-1.31,1.81-2.27,2.35c-0.96,0.55-2.06,0.82-3.28,0.82c-1.22,0-2.31-0.27-3.28-0.82c-0.97-0.55-1.73-1.33-2.28-2.35
			c-0.56-1.02-0.83-2.23-0.83-3.61c0-1.38,0.28-2.59,0.83-3.62c0.56-1.03,1.32-1.82,2.28-2.37c0.96-0.55,2.06-0.82,3.28-0.82
			C40.54,188.07,41.63,188.34,42.6,188.89z M37.22,190.53c-0.64,0.35-1.16,0.9-1.55,1.63c-0.39,0.73-0.59,1.64-0.59,2.72
			c0,1.06,0.2,1.96,0.59,2.69c0.39,0.73,0.91,1.28,1.55,1.63c0.64,0.35,1.34,0.53,2.1,0.53c0.76,0,1.46-0.18,2.1-0.53
			c0.64-0.35,1.16-0.9,1.55-1.63c0.39-0.73,0.59-1.63,0.59-2.69c0-1.08-0.2-1.98-0.59-2.72c-0.39-0.73-0.91-1.28-1.55-1.63
			c-0.64-0.35-1.34-0.53-2.1-0.53C38.56,190,37.87,190.18,37.22,190.53z"/>
		<path fill="#0E4E96" d="M56.28,184.47v17.02h-2.11v-17.02H56.28z"/>
		<path fill="#0E4E96" d="M69.94,189.51c0.91,0.99,1.37,2.42,1.37,4.29v7.7H69.2v-7.51c0-1.32-0.32-2.33-0.97-3.04
			c-0.65-0.71-1.53-1.06-2.64-1.06c-1.16,0-2.08,0.39-2.78,1.17s-1.04,1.92-1.04,3.42v7.03h-2.11v-13.26h2.11v3.14
			c0.32-1.08,0.9-1.91,1.73-2.49s1.78-0.87,2.86-0.87C67.84,188.02,69.03,188.52,69.94,189.51z"/>
		<path fill="#0E4E96" d="M80.62,199.56v1.93h-1.58c-1.3,0-2.27-0.32-2.91-0.97c-0.64-0.64-0.96-1.72-0.96-3.24v-7.15h-1.9v-1.91h1.9
			v-3.31h2.13v3.31h3.29v1.91h-3.29v7.2c0,0.85,0.15,1.44,0.45,1.75c0.3,0.31,0.82,0.47,1.56,0.47H80.62z"/>
		<path fill="#0E4E96" d="M94.8,195.34H84.63c0.05,1.51,0.46,2.65,1.24,3.4c0.78,0.76,1.73,1.13,2.86,1.13c1.02,0,1.87-0.27,2.56-0.81
			c0.69-0.54,1.11-1.26,1.26-2.16h2.25c-0.15,0.92-0.5,1.74-1.03,2.46c-0.53,0.72-1.22,1.29-2.07,1.69c-0.85,0.4-1.81,0.6-2.87,0.6
			c-1.22,0-2.3-0.27-3.24-0.82c-0.94-0.55-1.68-1.33-2.21-2.35c-0.53-1.02-0.8-2.23-0.8-3.61c0-1.38,0.27-2.59,0.8-3.62
			c0.53-1.03,1.27-1.82,2.21-2.37c0.94-0.55,2.02-0.82,3.24-0.82c1.24,0,2.31,0.27,3.23,0.82c0.92,0.55,1.62,1.28,2.11,2.2
			s0.73,1.93,0.73,3.04C94.89,194.6,94.86,195,94.8,195.34z M92.3,191.81c-0.36-0.66-0.84-1.15-1.46-1.47
			c-0.62-0.32-1.29-0.48-2.02-0.48c-1.16,0-2.13,0.37-2.92,1.12c-0.79,0.75-1.21,1.85-1.27,3.3h8.13
			C92.81,193.29,92.65,192.47,92.3,191.81z"/>
		<path fill="#0E4E96" d="M101.59,188.78c0.8-0.51,1.76-0.76,2.87-0.76v2.39h-0.65c-1.19,0-2.16,0.32-2.92,0.95
			c-0.76,0.64-1.14,1.69-1.14,3.15v6.98h-2.11v-13.26h2.11v2.68C100.17,190,100.78,189.29,101.59,188.78z"/>
		<path fill="#0E4E96" d="M116.83,189.51c0.91,0.99,1.37,2.42,1.37,4.29v7.7h-2.11v-7.51c0-1.32-0.32-2.33-0.97-3.04
			c-0.65-0.71-1.53-1.06-2.64-1.06c-1.16,0-2.08,0.39-2.78,1.17s-1.04,1.92-1.04,3.42v7.03h-2.11v-13.26h2.11v3.14
			c0.32-1.08,0.9-1.91,1.73-2.49s1.78-0.87,2.86-0.87C114.72,188.02,115.92,188.52,116.83,189.51z"/>
		<path fill="#0E4E96" d="M133.04,195.34h-10.17c0.05,1.51,0.46,2.65,1.24,3.4c0.78,0.76,1.73,1.13,2.86,1.13
			c1.02,0,1.87-0.27,2.56-0.81c0.69-0.54,1.11-1.26,1.26-2.16h2.25c-0.15,0.92-0.5,1.74-1.03,2.46c-0.53,0.72-1.22,1.29-2.07,1.69
			c-0.85,0.4-1.81,0.6-2.87,0.6c-1.22,0-2.3-0.27-3.24-0.82c-0.94-0.55-1.68-1.33-2.21-2.35c-0.53-1.02-0.8-2.23-0.8-3.61
			c0-1.38,0.27-2.59,0.8-3.62c0.53-1.03,1.27-1.82,2.21-2.37c0.94-0.55,2.02-0.82,3.24-0.82c1.24,0,2.31,0.27,3.23,0.82
			c0.92,0.55,1.62,1.28,2.11,2.2s0.73,1.93,0.73,3.04C133.13,194.6,133.1,195,133.04,195.34z M130.54,191.81
			c-0.36-0.66-0.84-1.15-1.46-1.47c-0.62-0.32-1.29-0.48-2.02-0.48c-1.16,0-2.13,0.37-2.92,1.12c-0.79,0.75-1.21,1.85-1.27,3.3H131
			C131.05,193.29,130.89,192.47,130.54,191.81z"/>
		<path fill="#0E4E96" d="M141.96,199.56v1.93h-1.58c-1.3,0-2.27-0.32-2.91-0.97c-0.64-0.64-0.96-1.72-0.96-3.24v-7.15h-1.9v-1.91h1.9
			v-3.31h2.13v3.31h3.29v1.91h-3.29v7.2c0,0.85,0.15,1.44,0.45,1.75c0.3,0.31,0.82,0.47,1.56,0.47H141.96z"/>
		<path fill="#0E4E96" d="M162.41,185.84c1.3,1.02,2.19,2.42,2.69,4.19h-2.22c-0.42-1.13-1.09-2.02-2.02-2.69c-0.93-0.67-2.06-1-3.41-1
			c-1.07,0-2.02,0.27-2.86,0.81c-0.84,0.54-1.51,1.31-1.99,2.32c-0.49,1.01-0.73,2.19-0.73,3.54c0,1.34,0.24,2.5,0.73,3.5
			c0.49,1,1.15,1.77,1.99,2.31c0.84,0.54,1.79,0.81,2.86,0.81c1.34,0,2.48-0.33,3.41-1c0.93-0.67,1.6-1.57,2.02-2.69h2.22
			c-0.49,1.77-1.39,3.17-2.69,4.19c-1.3,1.02-2.94,1.53-4.93,1.53c-1.53,0-2.88-0.37-4.05-1.1s-2.09-1.75-2.75-3.07
			c-0.66-1.31-0.98-2.8-0.98-4.48c0-1.69,0.33-3.19,0.98-4.51s1.57-2.35,2.75-3.08s2.53-1.1,4.05-1.1
			C159.47,184.3,161.12,184.81,162.41,185.84z"/>
		<path fill="#0E4E96" d="M176.97,188.89c0.96,0.55,1.72,1.34,2.27,2.37c0.55,1.03,0.82,2.24,0.82,3.62c0,1.38-0.27,2.59-0.82,3.61
			c-0.55,1.02-1.31,1.81-2.27,2.35c-0.96,0.55-2.06,0.82-3.28,0.82c-1.22,0-2.31-0.27-3.28-0.82c-0.96-0.55-1.73-1.33-2.28-2.35
			c-0.56-1.02-0.83-2.23-0.83-3.61c0-1.38,0.28-2.59,0.83-3.62c0.56-1.03,1.32-1.82,2.28-2.37c0.97-0.55,2.06-0.82,3.28-0.82
			C174.91,188.07,176.01,188.34,176.97,188.89z M171.6,190.53c-0.64,0.35-1.16,0.9-1.55,1.63c-0.39,0.73-0.59,1.64-0.59,2.72
			c0,1.06,0.2,1.96,0.59,2.69s0.91,1.28,1.55,1.63c0.64,0.35,1.34,0.53,2.1,0.53c0.76,0,1.46-0.18,2.1-0.53
			c0.64-0.35,1.16-0.9,1.55-1.63s0.59-1.63,0.59-2.69c0-1.08-0.2-1.98-0.59-2.72c-0.39-0.73-0.91-1.28-1.55-1.63
			c-0.64-0.35-1.34-0.53-2.1-0.53C172.94,190,172.24,190.18,171.6,190.53z"/>
		<path fill="#0E4E96" d="M193.1,189.51c0.91,0.99,1.37,2.42,1.37,4.29v7.7h-2.11v-7.51c0-1.32-0.32-2.33-0.97-3.04
			c-0.65-0.71-1.53-1.06-2.64-1.06c-1.16,0-2.08,0.39-2.78,1.17c-0.69,0.78-1.04,1.92-1.04,3.42v7.03h-2.11v-13.26h2.11v3.14
			c0.32-1.08,0.9-1.91,1.73-2.49s1.78-0.87,2.86-0.87C191,188.02,192.19,188.52,193.1,189.51z"/>
		<path fill="#0E4E96" d="M208,189.51c0.91,0.99,1.37,2.42,1.37,4.29v7.7h-2.11v-7.51c0-1.32-0.32-2.33-0.97-3.04
			c-0.65-0.71-1.53-1.06-2.64-1.06c-1.16,0-2.08,0.39-2.78,1.17c-0.69,0.78-1.04,1.92-1.04,3.42v7.03h-2.11v-13.26h2.11v3.14
			c0.32-1.08,0.9-1.91,1.73-2.49s1.78-0.87,2.86-0.87C205.89,188.02,207.09,188.52,208,189.51z"/>
		<path fill="#0E4E96" d="M224.21,195.34h-10.17c0.05,1.51,0.46,2.65,1.24,3.4c0.78,0.76,1.73,1.13,2.86,1.13
			c1.02,0,1.87-0.27,2.56-0.81c0.69-0.54,1.11-1.26,1.26-2.16h2.25c-0.15,0.92-0.5,1.74-1.03,2.46c-0.53,0.72-1.22,1.29-2.07,1.69
			c-0.85,0.4-1.81,0.6-2.87,0.6c-1.22,0-2.3-0.27-3.24-0.82c-0.94-0.55-1.68-1.33-2.21-2.35c-0.53-1.02-0.8-2.23-0.8-3.61
			c0-1.38,0.27-2.59,0.8-3.62c0.53-1.03,1.27-1.82,2.21-2.37c0.94-0.55,2.02-0.82,3.24-0.82c1.23,0,2.31,0.27,3.23,0.82
			c0.92,0.55,1.62,1.28,2.11,2.2s0.73,1.93,0.73,3.04C224.31,194.6,224.27,195,224.21,195.34z M221.71,191.81
			c-0.36-0.66-0.84-1.15-1.46-1.47c-0.62-0.32-1.29-0.48-2.01-0.48c-1.16,0-2.13,0.37-2.92,1.12c-0.79,0.75-1.21,1.85-1.27,3.3h8.13
			C222.22,193.29,222.07,192.47,221.71,191.81z"/>
		<path fill="#0E4E96" d="M236.72,189.42c1.07,0.9,1.72,2.11,1.97,3.62h-2.22c-0.15-0.95-0.58-1.69-1.26-2.23
			c-0.69-0.54-1.54-0.81-2.56-0.81c-0.74,0-1.42,0.18-2.03,0.53c-0.61,0.35-1.1,0.9-1.47,1.63c-0.37,0.73-0.56,1.64-0.56,2.72
			c0,1.08,0.19,1.98,0.56,2.72c0.37,0.73,0.86,1.28,1.47,1.63c0.61,0.35,1.29,0.53,2.03,0.53c1.02,0,1.87-0.27,2.56-0.82
			s1.11-1.3,1.26-2.25h2.22c-0.25,1.53-0.9,2.74-1.97,3.63c-1.07,0.89-2.41,1.34-4.03,1.34c-1.22,0-2.3-0.27-3.24-0.82
			c-0.94-0.55-1.68-1.33-2.21-2.35c-0.53-1.02-0.8-2.23-0.8-3.61c0-1.38,0.27-2.59,0.8-3.62c0.53-1.03,1.27-1.82,2.21-2.37
			c0.94-0.55,2.02-0.82,3.24-0.82C234.31,188.07,235.66,188.52,236.72,189.42z"/>
		<path fill="#0E4E96" d="M247.52,199.56v1.93h-1.58c-1.3,0-2.27-0.32-2.91-0.97c-0.64-0.64-0.96-1.72-0.96-3.24v-7.15h-1.9v-1.91h1.9
			v-3.31h2.13v3.31h3.29v1.91h-3.29v7.2c0,0.85,0.15,1.44,0.45,1.75c0.3,0.31,0.82,0.47,1.56,0.47H247.52z"/>
		<path fill="#0E4E96" d="M250.11,183.37c0.26-0.25,0.61-0.37,1.04-0.37c0.43,0,0.78,0.13,1.04,0.37c0.26,0.25,0.39,0.58,0.39,0.98
			s-0.13,0.73-0.39,0.98s-0.61,0.37-1.04,0.37c-0.43,0-0.78-0.12-1.04-0.37s-0.39-0.58-0.39-0.98S249.85,183.62,250.11,183.37z
			 M252.19,188.24v13.26h-2.11v-13.26H252.19z"/>
		<path fill="#0E4E96" d="M264.62,188.89c0.96,0.55,1.72,1.34,2.27,2.37c0.55,1.03,0.82,2.24,0.82,3.62c0,1.38-0.27,2.59-0.82,3.61
			c-0.55,1.02-1.31,1.81-2.27,2.35c-0.96,0.55-2.06,0.82-3.28,0.82c-1.22,0-2.31-0.27-3.28-0.82c-0.96-0.55-1.73-1.33-2.28-2.35
			c-0.56-1.02-0.83-2.23-0.83-3.61c0-1.38,0.28-2.59,0.83-3.62c0.56-1.03,1.32-1.82,2.28-2.37c0.97-0.55,2.06-0.82,3.28-0.82
			C262.56,188.07,263.66,188.34,264.62,188.89z M259.25,190.53c-0.64,0.35-1.16,0.9-1.55,1.63c-0.39,0.73-0.59,1.64-0.59,2.72
			c0,1.06,0.2,1.96,0.59,2.69s0.91,1.28,1.55,1.63c0.64,0.35,1.34,0.53,2.1,0.53c0.76,0,1.46-0.18,2.1-0.53
			c0.64-0.35,1.16-0.9,1.55-1.63s0.59-1.63,0.59-2.69c0-1.08-0.2-1.98-0.59-2.72c-0.39-0.73-0.91-1.28-1.55-1.63
			c-0.64-0.35-1.34-0.53-2.1-0.53C260.59,190,259.89,190.18,259.25,190.53z"/>
		<path fill="#0E4E96" d="M280.76,189.51c0.91,0.99,1.37,2.42,1.37,4.29v7.7h-2.11v-7.51c0-1.32-0.32-2.33-0.97-3.04
			c-0.65-0.71-1.53-1.06-2.64-1.06c-1.16,0-2.08,0.39-2.78,1.17c-0.69,0.78-1.04,1.92-1.04,3.42v7.03h-2.11v-13.26h2.11v3.14
			c0.32-1.08,0.9-1.91,1.73-2.49s1.78-0.87,2.86-0.87C278.65,188.02,279.84,188.52,280.76,189.51z"/>
	</g>
</g>
</svg>
