<svg width="55" height="55" viewBox="0 0 55 55" fill="none" xmlns="http://www.w3.org/2000/svg">
<mask id="mask0_1775_4681" style="mask-type:alpha" maskUnits="userSpaceOnUse" x="0" y="0" width="55" height="55">
<rect width="55" height="55" rx="8" fill="url(#paint0_linear_1775_4681)"/>
</mask>
<g mask="url(#mask0_1775_4681)">
<path d="M37.3164 -0.227084C41.761 2.12771 60.063 -6.71576 61.9238 -2.13937C62.606 -0.466402 58.4719 17.0873 58.7235 18.8709C58.7847 19.3089 58.6804 19.5573 58.277 19.756C54.8886 21.4222 40.8113 28.3737 37.3164 30.1076C37.3164 22.9123 37.3164 7.03825 37.3164 -0.227084Z" fill="#F5A689"/>
<path d="M19.0828 22.2373C19.0828 29.5184 19.0828 53.1093 19.0828 60.334C16.6985 59.1465 1.84384 55.5815 0.171165 53.6399C-2.5237 50.5152 -4.7698 39.0257 -5.26843 34.9415C-5.3183 34.5419 -5.3251 34.2438 -4.8854 34.0271C-1.46751 32.3474 15.5222 24.0028 19.0828 22.2373Z" fill="#72A9DC"/>
<path d="M35.4192 19.3158C29.1206 16.1821 6.02719 4.89576 -0.257812 1.77108C1.90443 0.181643 13.0715 -4.96595 15.5284 -5.53941C19.2024 -6.39734 31.3735 -6.76987 34.9727 -5.58231C35.6481 -5.35879 35.9178 -5.0969 35.9087 -4.34959C35.8634 -0.829814 35.4192 15.6289 35.4192 19.3158Z" fill="#D5826D"/>
<path d="M20.9112 33.0518C27.2416 36.199 53.4083 49.4563 59.6843 52.5765C57.8597 53.9243 47.0512 55.7508 45 56.3604C40.9022 57.5819 25.6958 58.5301 21.6547 57.1439C21.2558 57.0061 20.8976 56.9384 20.8999 56.3604C20.9226 52.7255 20.9112 36.8786 20.9112 33.0518Z" fill="#A5CAEB"/>
<path d="M25.9568 16.8119C20.1001 19.7244 -0.223559 29.6177 -6.22978 32.6047C-6.17539 30.2318 -6.59469 21.9211 -5.80368 19.8553C-4.72483 17.0377 -6.58109 4.25903 -4.39845 2.17967C-4.06301 1.86133 -3.81143 1.61072 -3.24254 1.89971C0.130014 3.62009 22.412 14.85 25.8027 16.5387C25.8525 16.5636 25.8707 16.6539 25.9568 16.8119Z" fill="#3F88C8"/>
<path d="M58.6191 21.6616C58.2995 27.3285 63.4898 45.9501 59.5076 49.7115C59.2447 49.9598 59.0157 50.1021 58.6191 49.9011C55.1491 48.1537 33.8644 37.495 30.1836 35.6617C36.2283 32.6544 52.5721 24.6666 58.6191 21.6616Z" fill="#FBCCAC"/>
</g>
<defs>
<linearGradient id="paint0_linear_1775_4681" x1="27.5" y1="0" x2="27.5" y2="55" gradientUnits="userSpaceOnUse">
<stop stop-color="#ECE9E0"/>
<stop offset="1" stop-color="#E1E0DD"/>
</linearGradient>
</defs>
</svg>
