<svg width="214" height="157" viewBox="0 0 214 157" fill="none" xmlns="http://www.w3.org/2000/svg">
<path d="M23.7531 103.295L35.0909 109.493L23.7531 115.707L17.5455 127.057L11.3379 115.707L0 109.493L11.3379 103.295L17.5455 91.9276L23.7531 103.295Z" fill="#B9C9FB"/>
<path d="M190.093 140.445L197.977 144.776L190.093 149.108L185.767 157L181.44 149.108L173.557 144.776L181.44 140.445L185.767 132.553L190.093 140.445Z" fill="#B9C9FB"/>
<path d="M207.365 7.37278L214 11.0193L207.365 14.6487L203.722 21.3083L200.097 14.6487L193.462 11.0193L200.097 7.37278L203.722 0.730286L207.365 7.37278Z" fill="#B9C9FB"/>
<g clip-path="url(#clip0_34_358)">
<path d="M169.777 77.9793H155.125V63.4173C155.125 60.5109 152.756 58.142 149.85 58.142H147.023V49.2933C147.023 28.5503 130.152 11.6791 109.419 11.6791C88.6756 11.6791 71.8044 28.5503 71.8044 49.2933V58.142H68.9776C66.0712 58.142 63.7023 60.5109 63.7023 63.4173V122.441C63.7023 125.348 66.0712 127.717 68.9776 127.717H149.85C152.756 127.717 155.125 125.348 155.125 122.441V107.87H169.777C170.752 107.87 171.538 107.083 171.538 106.118V79.741C171.538 78.7656 170.752 77.9793 169.777 77.9793ZM75.318 49.2933C75.318 30.4912 90.6165 15.1927 109.419 15.1927C128.221 15.1927 143.519 30.4912 143.519 49.2933V58.142H135.556V49.2933C135.556 34.8807 123.831 23.1555 109.419 23.1555C95.006 23.1555 83.2808 34.8807 83.2808 49.2933V58.142H75.318V49.2933ZM86.7944 58.142V49.2933C86.7944 36.8216 96.937 26.6691 109.419 26.6691C121.89 26.6691 132.043 36.8216 132.043 49.2933V58.142H86.7944ZM151.611 122.441C151.611 123.407 150.825 124.203 149.85 124.203H68.9776C68.0121 124.203 67.2159 123.417 67.2159 122.441V63.4173C67.2159 62.4518 68.0022 61.6556 68.9776 61.6556H73.5562H85.0326H133.795H145.271H149.85C150.815 61.6556 151.611 62.4419 151.611 63.4173V77.9892H85.0326C84.0571 77.9892 83.2708 78.7756 83.2708 79.741V106.118C83.2708 107.083 84.0571 107.87 85.0326 107.87H151.611V122.441ZM168.015 104.356H86.7944V81.5028H168.025V104.356H168.015Z" fill="#1D68F5"/>
<path d="M97.5142 94.6912C97.9721 94.6912 98.4299 94.4921 98.7584 94.1835C99.0769 93.8451 99.266 93.3972 99.266 92.9393C99.266 92.4616 99.0769 92.0236 98.7584 91.6952C98.0915 91.0482 96.917 91.0482 96.2601 91.6952C95.9416 92.0236 95.7524 92.4914 95.7524 92.9393C95.7524 93.3972 95.9416 93.8551 96.2601 94.1736C96.5985 94.4921 97.0464 94.6912 97.5142 94.6912Z" fill="#0D3FE9"/>
<path d="M121.432 94.6912C122.398 94.6912 123.194 93.9048 123.194 92.9294C123.194 91.9639 122.398 91.1676 121.432 91.1676C120.467 91.1676 119.671 91.9639 119.671 92.9294C119.671 93.8949 120.457 94.6912 121.432 94.6912Z" fill="#0D3FE9"/>
<path d="M109.468 94.6912C110.434 94.6912 111.23 93.9048 111.23 92.9294C111.23 91.9639 110.444 91.1676 109.468 91.1676C108.503 91.1676 107.707 91.9639 107.707 92.9294C107.716 93.8949 108.503 94.6912 109.468 94.6912Z" fill="#0D3FE9"/>
<path d="M145.341 94.6912C146.306 94.6912 147.103 93.9048 147.103 92.9294C147.103 91.9639 146.306 91.1676 145.341 91.1676C144.375 91.1676 143.579 91.9639 143.579 92.9294C143.579 93.8949 144.375 94.6912 145.341 94.6912Z" fill="#0D3FE9"/>
<path d="M133.387 94.6912C134.352 94.6912 135.148 93.9048 135.148 92.9294C135.148 91.9639 134.352 91.1676 133.387 91.1676C132.421 91.1676 131.625 91.9639 131.625 92.9294C131.625 93.8949 132.421 94.6912 133.387 94.6912Z" fill="#0D3FE9"/>
<path d="M157.295 94.6912C157.773 94.6912 158.211 94.4921 158.539 94.1835C158.858 93.8451 159.047 93.3972 159.047 92.9393C159.047 92.4815 158.858 92.0236 158.539 91.6952C157.892 91.0482 156.698 91.0482 156.041 91.6952C155.722 92.0236 155.533 92.4715 155.533 92.9393C155.533 93.3972 155.732 93.8551 156.041 94.1736C156.379 94.4921 156.817 94.6912 157.295 94.6912Z" fill="#0D3FE9"/>
</g>
<defs>
<clipPath id="clip0_34_358">
<rect width="107.836" height="116.038" fill="white" transform="translate(63.7023 11.6791)"/>
</clipPath>
</defs>
</svg>
