<svg width="203" height="149" viewBox="0 0 203 149" fill="none" xmlns="http://www.w3.org/2000/svg">
<g clip-path="url(#clip0_34_285)">
<path d="M123.588 46.2499H87.2668L80.8093 46.364H75.2608C65.3 46.402 58.5775 53.1531 58.5585 63.1561C58.5396 74.3192 58.5396 85.5013 58.5585 96.6644C58.5775 106.782 65.319 113.571 75.3366 113.609H105.749C106.071 113.609 106.393 113.628 106.715 113.628C107.302 113.628 107.851 113.609 108.419 113.571C110.124 113.457 111.355 112.22 111.373 110.547C111.411 108.873 110.143 107.542 108.362 107.39C107.965 107.371 107.51 107.371 107.056 107.371H96.1861C89.1794 107.39 81.9645 107.39 74.8632 107.352C68.9549 107.333 64.8077 103.168 64.7887 97.2539C64.7319 85.6534 64.7319 74.0149 64.7887 62.6617C64.8077 56.8424 68.9738 52.6206 74.6927 52.6206C94.5954 52.5636 115.18 52.5636 135.878 52.6206C141.616 52.6206 145.725 56.7473 145.839 62.6046C145.857 63.9739 145.857 65.3431 145.839 66.7123C145.839 68.0055 145.839 69.2797 145.857 70.5728C145.895 72.6837 147.107 74.053 148.944 74.053C150.762 74.053 151.993 72.6647 152.031 70.5918C152.088 67.435 152.088 64.6395 152.031 62.0341C151.879 54.4653 146.426 48.0185 139.097 46.7253C137.393 46.421 135.632 46.364 133.643 46.2879C132.753 46.2689 131.844 46.2309 130.897 46.1738L129.799 46.0977L123.588 46.2499Z" fill="#1D68F5"/>
<path d="M164.681 75.3842C163.242 74.3382 161.424 74.4904 160.155 75.7455C159.738 76.1639 159.359 76.6964 159.019 77.1908L139.514 104.537C138.718 105.66 137.734 106.801 136.484 106.915C135.272 107.067 134.098 106.078 133.132 105.146C131.409 103.473 129.704 101.78 128 100.106C125.633 97.7864 123.285 95.4663 120.899 93.1652C119.933 92.2334 118.816 91.7009 117.679 91.7009C116.789 91.7199 115.975 92.1193 115.331 92.8229C113.911 94.3633 114.157 96.5122 115.956 98.2808C119.687 101.989 123.777 105.983 128.795 110.87C130.916 112.943 133.378 113.951 136.578 114.046C139.949 113.932 142.752 112.316 144.93 109.235C149.001 103.492 153.091 97.7674 157.163 92.0432L164.889 81.2034C165.23 80.728 165.552 80.2906 165.779 79.8152C166.574 78.1987 166.139 76.4301 164.681 75.3842Z" fill="#42B9E0"/>
<path d="M85.6003 79.1876C85.5624 81.5647 83.5173 83.5045 81.1501 83.3904C78.8588 83.2953 77.0219 81.3365 77.0598 79.0355C77.0977 76.6583 79.1428 74.7186 81.5099 74.8327C83.8013 74.9278 85.6382 76.8865 85.6003 79.1876Z" fill="#E33F3B"/>
<path d="M113.4 83.3904C111.033 83.3714 109.082 81.3556 109.158 78.9784C109.234 76.6773 111.165 74.8136 113.456 74.8327C115.824 74.8517 117.774 76.8675 117.698 79.2446C117.623 81.5457 115.691 83.4094 113.4 83.3904Z" fill="#E33F3B"/>
<path d="M133.946 79.1496C133.927 81.5267 131.92 83.4855 129.553 83.4094C127.261 83.3334 125.406 81.3936 125.425 79.0925C125.444 76.7154 127.451 74.7566 129.818 74.8327C132.109 74.9087 133.965 76.8485 133.946 79.1496Z" fill="#E33F3B"/>
<path d="M101.602 79.1876C101.564 81.5267 99.7084 83.3904 97.417 83.4094C95.0309 83.4284 93.1183 81.4697 93.1562 79.0545C93.1941 76.7154 95.0499 74.8517 97.3412 74.8327C99.7273 74.7946 101.64 76.7534 101.602 79.1876Z" fill="#E33F3B"/>
<path d="M129.799 41.8189V46.345H123.588V40.6588C123.607 37.0646 123.626 33.6795 123.569 30.2374C123.398 20.9951 116.202 13.4643 106.829 12.7036C97.2276 11.9429 88.7439 18.3327 87.4751 27.2517C86.926 31.1122 86.9639 35.0678 87.0207 38.9092C87.0207 40.5637 87.0396 42.2563 87.0207 43.8917C87.0017 44.3672 87.0585 44.7855 87.1153 45.1659L87.229 46.345H80.8094V44.7475C80.7904 44.177 80.7904 43.6255 80.8094 43.074C80.8472 41.3244 80.8472 39.5748 80.8283 37.8633C80.8283 33.9267 80.8094 30.1994 81.2828 26.491C82.7031 15.2519 93.232 6.44693 105.257 6.42792C117.376 6.42792 127.735 15.1188 129.401 26.6432C129.704 28.7731 129.742 30.922 129.761 33.2041L129.78 33.7746C129.818 36.437 129.818 39.0424 129.799 41.8189Z" fill="#5076ED"/>
</g>
<path d="M22.5321 98.0556L33.2872 103.934L22.5321 109.83L16.6436 120.597L10.7551 109.83L0 103.934L10.7551 98.0556L16.6436 87.2724L22.5321 98.0556Z" fill="#B9C9FB"/>
<path d="M180.322 133.296L187.8 137.405L180.322 141.513L176.218 149L172.114 141.513L164.635 137.405L172.114 133.296L176.218 125.81L180.322 133.296Z" fill="#B9C9FB"/>
<path d="M196.706 7.06387L203 10.523L196.706 13.9658L193.251 20.2831L189.812 13.9658L183.518 10.523L189.812 7.06387L193.251 0.762817L196.706 7.06387Z" fill="#B9C9FB"/>
<defs>
<clipPath id="clip0_34_285">
<rect width="107.637" height="107.637" fill="white" transform="translate(58.5396 6.42792)"/>
</clipPath>
</defs>
</svg>
