<svg width="20" height="20" viewBox="0 0 20 20" fill="none" xmlns="http://www.w3.org/2000/svg">
<path d="M2.8418 18.3334C2.8418 15.1084 6.05013 12.5001 10.0001 12.5001C10.8001 12.5001 11.5751 12.6084 12.3001 12.8084M10.0001 10.0001C11.1052 10.0001 12.165 9.56109 12.9464 8.77969C13.7278 7.99829 14.1668 6.93848 14.1668 5.83341C14.1668 4.72835 13.7278 3.66854 12.9464 2.88714C12.165 2.10573 11.1052 1.66675 10.0001 1.66675C8.89506 1.66675 7.83525 2.10573 7.05385 2.88714C6.27245 3.66854 5.83346 4.72835 5.83346 5.83341C5.83346 6.93848 6.27245 7.99829 7.05385 8.77969C7.83525 9.56109 8.89506 10.0001 10.0001 10.0001V10.0001Z" stroke="#1D68F5" stroke-width="1.5" stroke-linecap="round" stroke-linejoin="round"/>
<path d="M18.3332 14.9999C18.3332 15.6249 18.1582 16.2165 17.8498 16.7165C17.6748 17.0165 17.4498 17.2832 17.1915 17.4999C16.6082 18.0249 15.8415 18.3332 14.9998 18.3332C14.4253 18.3344 13.8604 18.186 13.3606 17.9025C12.8609 17.619 12.4436 17.2103 12.1498 16.7165C11.8326 16.2002 11.6653 15.6059 11.6665 14.9999C11.6665 13.9499 12.1498 13.0082 12.9165 12.3999C13.4065 12.0071 13.9975 11.7609 14.6214 11.6894C15.2453 11.6179 15.8766 11.7242 16.4428 11.9959C17.0089 12.2676 17.4867 12.6938 17.8212 13.2253C18.1556 13.7568 18.3331 14.3719 18.3332 14.9999V14.9999Z" stroke="#1D68F5" stroke-width="1.5" stroke-miterlimit="10" stroke-linecap="round" stroke-linejoin="round"/>
<path d="M13.7002 15L14.5252 15.825L16.3002 14.1833" stroke="#1D68F5" stroke-width="1.5" stroke-linecap="round" stroke-linejoin="round"/>
</svg>
