<svg width="21" height="18" viewBox="0 0 21 18" fill="none" xmlns="http://www.w3.org/2000/svg">
<path d="M20.5683 5.89L19.5232 1.52C19.3042 0.62 18.5279 0 17.6221 0H3.79701C2.90122 0 2.11491 0.63 1.90589 1.52L0.860795 5.89C0.621916 6.91 0.840888 7.95 1.4779 8.77C1.55752 8.88 1.66701 8.96 1.75659 9.06V16C1.75659 17.1 2.65238 18 3.74724 18H17.6818C18.7767 18 19.6725 17.1 19.6725 16V9.06C19.7621 8.97 19.8715 8.88 19.9512 8.78C20.5882 7.96 20.8171 6.91 20.5683 5.89ZM17.5922 1.99L18.6373 6.36C18.7369 6.78 18.6473 7.2 18.3885 7.53C18.2492 7.71 17.9506 8 17.4529 8C16.8457 8 16.3182 7.51 16.2485 6.86L15.6713 2L17.5922 1.99ZM11.7099 2H13.6607L14.1982 6.52C14.2479 6.91 14.1285 7.3 13.8697 7.59C13.6507 7.85 13.3322 8 12.9242 8C12.2573 8 11.7099 7.41 11.7099 6.69V2ZM7.22093 6.52L7.76836 2H9.7192V6.69C9.7192 7.41 9.17178 8 8.43523 8C8.09682 8 7.78827 7.85 7.54939 7.59C7.30056 7.3 7.18112 6.91 7.22093 6.52ZM2.79173 6.36L3.79701 2H5.7578L5.18051 6.86C5.10089 7.51 4.58332 8 3.97617 8C3.48846 8 3.17991 7.71 3.05051 7.53C2.78178 7.21 2.6922 6.78 2.79173 6.36ZM3.74724 16V9.97C3.82687 9.98 3.89654 10 3.97617 10C4.8421 10 5.62841 9.64 6.2057 9.05C6.8029 9.65 7.59916 10 8.50491 10C9.37084 10 10.1472 9.64 10.7245 9.07C11.3117 9.64 12.108 10 13.0038 10C13.8399 10 14.6361 9.65 15.2333 9.05C15.8106 9.64 16.5969 10 17.4629 10C17.5425 10 17.6122 9.98 17.6918 9.97V16H3.74724Z" fill="white"/>
</svg>
