<svg width="21" height="20" viewBox="0 0 21 20" fill="none" xmlns="http://www.w3.org/2000/svg">
<path d="M10.8131 0C5.31893 0 0.859863 4.48 0.859863 10C0.859863 15.52 5.31893 20 10.8131 20C16.3073 20 20.7664 15.52 20.7664 10C20.7664 4.48 16.3073 0 10.8131 0ZM9.81781 17.93C5.88627 17.44 2.85052 14.08 2.85052 10C2.85052 9.38 2.93014 8.79 3.05954 8.21L7.82715 13V14C7.82715 15.1 8.72295 16 9.81781 16V17.93ZM16.6856 15.39C16.4268 14.58 15.6902 14 14.7944 14H13.7991V11C13.7991 10.45 13.3512 10 12.8038 10H6.83183V8H8.82248C9.36991 8 9.81781 7.55 9.81781 7V5H11.8085C12.9033 5 13.7991 4.1 13.7991 3V2.59C16.7154 3.78 18.7758 6.65 18.7758 10C18.7758 12.08 17.9795 13.97 16.6856 15.39Z" fill="white"/>
</svg>
