<svg width="20" height="20" viewBox="0 0 20 20" fill="none" xmlns="http://www.w3.org/2000/svg">
<g clip-path="url(#clip0_1789_3220)">
<path d="M4.58327 7.49988H7.47493M4.58327 10.8332H7.47493M10.4166 18.3332H3.39993C2.43327 18.3332 1.6416 17.5582 1.6416 16.6082V4.24155C1.6416 2.05822 3.2666 1.06655 5.25827 2.04155L8.95827 3.85822C9.75827 4.24988 10.4166 5.29155 10.4166 6.17488V18.3332ZM18.3083 12.5499V15.6999C18.3083 17.4999 17.4749 18.3332 15.6749 18.3332H10.4166V8.68322L10.8083 8.76655L14.5583 9.60822L16.2499 9.98322C17.3499 10.2249 18.2499 10.7916 18.2999 12.3916C18.3083 12.4416 18.3083 12.4916 18.3083 12.5499V12.5499Z" stroke="#8A91A8" stroke-width="1.5" stroke-linecap="round" stroke-linejoin="round"/>
<path d="M14.5581 9.60827V12.2916C14.5581 13.3249 13.7164 14.1666 12.6831 14.1666C11.6498 14.1666 10.8081 13.3249 10.8081 12.2916V8.7666L14.5581 9.60827ZM18.2998 12.3916C18.2744 12.87 18.0669 13.3205 17.7197 13.6506C17.3725 13.9807 16.9122 14.1654 16.4331 14.1666C15.3998 14.1666 14.5581 13.3249 14.5581 12.2916V9.60827L16.2498 9.98327C17.3498 10.2249 18.2498 10.7916 18.2998 12.3916Z" stroke="#8A91A8" stroke-width="1.5" stroke-linecap="round" stroke-linejoin="round"/>
</g>
<defs>
<clipPath id="clip0_1789_3220">
<rect width="20" height="20" fill="white"/>
</clipPath>
</defs>
</svg>
