<svg width="20" height="20" viewBox="0 0 20 20" fill="none" xmlns="http://www.w3.org/2000/svg">
<g clip-path="url(#clip0_1794_3263)">
<path d="M18.3332 7.5001V12.5001C18.3332 14.5834 17.9165 16.0418 16.9832 16.9834L11.6665 11.6668L18.1082 5.2251C18.2582 5.88343 18.3332 6.63343 18.3332 7.5001Z" stroke="#8A91A8" stroke-width="1.5" stroke-linecap="round" stroke-linejoin="round"/>
<path d="M18.1082 5.22508L5.22484 18.1084C2.7165 17.5334 1.6665 15.8001 1.6665 12.5001V7.50008C1.6665 3.33341 3.33317 1.66675 7.49984 1.66675H12.4998C15.7998 1.66675 17.5332 2.71675 18.1082 5.22508Z" stroke="#8A91A8" stroke-width="1.5" stroke-linecap="round" stroke-linejoin="round"/>
<path d="M16.9834 16.9834C16.0418 17.9167 14.5834 18.3334 12.5001 18.3334H7.5001C6.63343 18.3334 5.88343 18.2584 5.2251 18.1084L11.6668 11.6667L16.9834 16.9834Z" stroke="#8A91A8" stroke-width="1.5" stroke-linecap="round" stroke-linejoin="round"/>
<path d="M5.20022 6.6501C5.76689 4.20843 9.43355 4.20843 10.0002 6.6501C10.3252 8.08343 9.42522 9.3001 8.63355 10.0501C8.35476 10.3151 7.98484 10.4628 7.60022 10.4628C7.2156 10.4628 6.84568 10.3151 6.56689 10.0501C5.77522 9.3001 4.86689 8.08343 5.20022 6.6501V6.6501Z" stroke="#8A91A8" stroke-width="1.5"/>
<path d="M7.5791 7.25H7.5866" stroke="#8A91A8" stroke-width="2" stroke-linecap="round" stroke-linejoin="round"/>
</g>
<defs>
<clipPath id="clip0_1794_3263">
<rect width="20" height="20" fill="white"/>
</clipPath>
</defs>
</svg>
