<svg width="20" height="20" viewBox="0 0 20 20" fill="none" xmlns="http://www.w3.org/2000/svg">
<g clip-path="url(#clip0_1809_3637)">
<path d="M18.3335 5.00008V7.01675C18.3335 8.33341 17.5002 9.16675 16.1835 9.16675H13.3335V3.34175C13.3335 2.41675 14.0918 1.66675 15.0168 1.66675C15.9252 1.67508 16.7585 2.04175 17.3585 2.64175C17.9585 3.25008 18.3335 4.08341 18.3335 5.00008Z" stroke="#8A91A8" stroke-width="1.5" stroke-miterlimit="10" stroke-linecap="round" stroke-linejoin="round"/>
<path d="M1.6665 5.83341V17.5001C1.6665 18.1917 2.44984 18.5834 2.99984 18.1667L4.42484 17.1001C4.75817 16.8501 5.22484 16.8834 5.52484 17.1834L6.90817 18.5751C7.23317 18.9001 7.7665 18.9001 8.0915 18.5751L9.4915 17.1751C9.78317 16.8834 10.2498 16.8501 10.5748 17.1001L11.9998 18.1667C12.5498 18.5751 13.3332 18.1834 13.3332 17.5001V3.33341C13.3332 2.41675 14.0832 1.66675 14.9998 1.66675H4.99984C2.49984 1.66675 1.6665 3.15841 1.6665 5.00008V5.83341Z" stroke="#8A91A8" stroke-width="1.5" stroke-miterlimit="10" stroke-linecap="round" stroke-linejoin="round"/>
<path d="M5 7.5H10M5.625 10.8333H9.375" stroke="#8A91A8" stroke-width="1.5" stroke-linecap="round" stroke-linejoin="round"/>
</g>
<defs>
<clipPath id="clip0_1809_3637">
<rect width="20" height="20" fill="white"/>
</clipPath>
</defs>
</svg>
