<svg width="20" height="20" viewBox="0 0 20 20" fill="none" xmlns="http://www.w3.org/2000/svg">
<g clip-path="url(#clip0_1794_3259)">
<path d="M18.3332 10.8334V7.50008C18.3332 3.33341 16.6665 1.66675 12.4998 1.66675H7.49984C3.33317 1.66675 1.6665 3.33341 1.6665 7.50008V12.5001C1.6665 16.6667 3.33317 18.3334 7.49984 18.3334H10.8332" stroke="#8A91A8" stroke-width="1.5" stroke-linecap="round" stroke-linejoin="round"/>
<path d="M18.3332 10.8334V7.50008C18.3332 3.33341 16.6665 1.66675 12.4998 1.66675H7.49984C3.33317 1.66675 1.6665 3.33341 1.6665 7.50008V12.5001C1.6665 16.6667 3.33317 18.3334 7.49984 18.3334H10.8332" stroke="#8A91A8" stroke-width="1.5" stroke-linecap="round" stroke-linejoin="round"/>
<path d="M18.3332 10.8334V7.50008C18.3332 3.33341 16.6665 1.66675 12.4998 1.66675H7.49984C3.33317 1.66675 1.6665 3.33341 1.6665 7.50008V12.5001C1.6665 16.6667 3.33317 18.3334 7.49984 18.3334H10.8332M13.3332 16.1917L14.6498 17.5001L17.4998 14.1667M5.83317 8.75008V11.2501M9.99984 8.75008V11.2501M14.1665 8.75008V11.2501" stroke="#8A91A8" stroke-width="1.5" stroke-linecap="round" stroke-linejoin="round"/>
</g>
<defs>
<clipPath id="clip0_1794_3259">
<rect width="20" height="20" fill="white"/>
</clipPath>
</defs>
</svg>
