<svg width="28" height="28" viewBox="0 0 28 28" fill="none" xmlns="http://www.w3.org/2000/svg">
<path d="M15.8667 13.51V16.695C15.8667 19.355 14.805 20.4167 12.145 20.4167H8.97167C6.32333 20.4167 5.25 19.355 5.25 16.695V13.51C5.25 10.8617 6.31167 9.80005 8.97167 9.80005H12.1567C14.805 9.80005 15.8667 10.8617 15.8667 13.51Z" stroke="#1D68F5" stroke-width="1.5" stroke-linecap="round" stroke-linejoin="round"/>
<path d="M24.4998 16.3334C24.4998 20.8484 20.8482 24.5001 16.3332 24.5001L17.5582 22.4584M1.1665 9.33342C1.1665 4.81842 4.81817 1.16675 9.33317 1.16675L8.10817 3.20841M20.4165 8.96008V12.1451C20.4165 14.8051 19.3548 15.8667 16.6948 15.8667H15.8665V13.5101C15.8665 10.8617 14.8048 9.80008 12.1448 9.80008H9.79984V8.96008C9.79984 6.30008 10.8615 5.25008 13.5215 5.25008H16.7065C19.3548 5.25008 20.4165 6.31175 20.4165 8.96008Z" stroke="#1D68F5" stroke-width="1.5" stroke-linecap="round" stroke-linejoin="round"/>
</svg>
